<?xml version="1.0" encoding="UTF-8" ?>
<!DOCTYPE svg PUBLIC "-//W3C//DTD SVG 1.1//EN" "http://www.w3.org/Graphics/SVG/1.1/DTD/svg11.dtd">
<svg width="351pt" height="164pt" viewBox="0 0 351 164" version="1.1" xmlns="http://www.w3.org/2000/svg">
<g id="#f7777aff">
<path fill="#f7777a" opacity="1.00" d=" M 150.89 0.00 L 152.79 0.00 C 152.18 1.51 151.55 1.51 150.89 0.00 Z" />
<path fill="#f7777a" opacity="1.00" d=" M 194.40 0.00 L 194.91 0.00 C 194.80 0.10 194.59 0.31 194.49 0.41 L 194.40 0.00 Z" />
<path fill="#f7777a" opacity="1.00" d=" M 126.49 1.31 C 129.52 -1.62 129.28 5.55 126.28 3.00 C 126.33 2.58 126.44 1.73 126.49 1.31 Z" />
<path fill="#f7777a" opacity="1.00" d=" M 160.02 2.01 C 160.89 1.78 161.78 1.59 162.67 1.42 C 163.53 2.77 161.72 3.61 161.05 4.45 C 160.79 3.84 160.28 2.62 160.02 2.01 Z" />
<path fill="#f7777a" opacity="1.00" d=" M 196.04 2.05 C 196.63 1.90 197.22 1.78 197.82 1.67 C 199.26 2.66 198.07 4.59 198.14 6.01 C 200.22 7.00 202.67 6.37 204.90 6.68 C 203.44 8.33 201.31 8.03 199.32 7.82 C 200.91 9.84 206.22 10.14 206.89 7.02 C 207.61 7.73 208.34 8.45 209.07 9.17 C 209.95 8.34 210.84 7.51 211.71 6.68 C 212.28 8.48 213.76 9.23 215.50 9.34 C 215.03 8.78 214.10 7.64 213.63 7.07 C 215.45 6.97 217.30 6.81 218.95 5.93 C 220.70 5.48 222.79 5.86 223.88 4.00 C 224.25 4.96 224.63 5.92 225.01 6.88 C 225.97 5.99 226.96 5.13 227.99 4.31 C 229.17 4.86 230.22 5.64 231.28 6.39 C 234.84 2.74 240.75 5.54 245.04 3.34 C 245.46 4.47 245.44 5.58 245.01 6.69 C 245.08 8.57 245.21 10.45 245.37 12.33 C 246.97 11.59 248.50 10.73 250.01 9.83 L 249.29 8.51 C 248.61 9.03 247.93 9.56 247.26 10.09 C 247.29 9.43 247.33 8.11 247.35 7.45 C 250.42 8.33 253.58 7.15 256.66 7.92 C 256.29 8.38 255.56 9.32 255.19 9.78 C 256.01 9.97 257.66 10.34 258.48 10.53 C 258.89 10.04 259.72 9.07 260.13 8.58 C 259.84 9.26 259.27 10.62 258.99 11.29 C 259.86 12.64 260.73 13.99 261.61 15.34 C 259.45 16.38 257.37 18.33 254.81 17.36 C 255.36 17.70 256.45 18.38 257.00 18.72 C 255.03 19.34 252.96 19.10 250.95 19.00 C 251.22 19.46 251.77 20.39 252.04 20.85 C 249.14 22.12 246.33 23.78 243.08 23.90 C 243.23 24.37 243.51 25.29 243.66 25.76 C 242.82 26.16 241.99 26.55 241.16 26.95 C 241.41 27.50 241.90 28.58 242.15 29.13 C 243.19 28.62 244.23 28.12 245.28 27.60 C 246.48 28.34 247.84 29.07 248.15 30.59 C 249.52 31.49 250.91 32.36 252.30 33.22 C 252.40 32.73 252.61 31.74 252.71 31.24 C 254.83 32.40 257.24 32.69 259.57 33.20 C 262.41 36.02 266.78 33.91 270.13 35.80 C 270.78 34.98 272.08 33.34 272.73 32.53 C 271.34 32.82 269.98 33.28 268.79 34.06 C 268.21 33.17 267.62 32.29 267.01 31.42 C 265.50 31.49 263.98 31.57 262.47 31.67 C 264.13 31.19 265.78 30.68 267.40 30.08 C 268.21 30.89 269.01 31.71 269.83 32.52 C 270.61 32.38 272.18 32.09 272.96 31.95 C 273.61 32.60 274.26 33.24 274.92 33.88 C 274.39 34.64 273.84 35.38 273.36 36.17 C 273.81 36.40 274.71 36.86 275.16 37.10 C 276.31 35.89 277.74 35.02 279.21 34.25 C 281.69 34.89 283.55 36.36 284.50 38.76 C 283.87 39.03 282.62 39.58 281.99 39.85 C 282.59 39.94 283.38 40.95 283.85 39.94 C 285.42 38.24 287.45 37.10 289.83 38.05 C 288.46 38.95 287.09 39.82 285.76 40.76 C 287.56 40.60 289.36 40.30 291.11 39.84 C 292.70 40.44 294.07 41.40 294.57 43.12 C 295.43 42.90 296.31 42.69 297.19 42.48 L 297.38 40.82 C 297.54 41.59 297.69 42.37 297.84 43.15 C 299.46 42.85 301.09 42.72 302.74 42.77 C 302.15 44.55 303.25 45.51 304.67 46.21 C 306.10 45.95 308.88 43.68 309.50 46.11 C 309.88 48.51 311.79 50.33 314.25 48.88 C 314.98 49.88 315.69 50.90 316.42 51.92 C 315.77 51.85 314.49 51.70 313.84 51.63 C 314.17 52.50 314.83 54.23 315.15 55.10 C 315.58 54.24 316.01 53.38 316.45 52.53 C 316.35 53.56 316.18 54.57 315.92 55.57 C 316.42 57.85 317.19 60.11 318.75 61.91 C 319.26 61.50 320.29 60.70 320.80 60.30 C 323.52 62.42 325.83 67.67 329.89 65.90 C 329.32 65.44 328.19 64.52 327.63 64.06 C 328.69 63.69 329.77 63.34 330.85 62.99 C 330.81 65.36 332.95 66.35 334.61 67.53 C 334.68 66.97 334.81 65.83 334.88 65.27 C 335.35 66.24 336.29 68.20 336.76 69.17 C 337.37 68.86 338.59 68.23 339.20 67.91 C 339.23 68.37 339.29 69.29 339.31 69.75 C 339.74 69.72 340.58 69.66 341.00 69.63 L 341.05 70.70 C 340.35 70.58 338.95 70.34 338.25 70.22 C 338.48 71.10 338.96 72.85 339.19 73.73 C 338.48 73.51 337.06 73.08 336.35 72.86 C 335.57 73.36 333.99 74.36 333.21 74.86 C 333.35 72.97 335.07 69.81 332.20 69.18 C 331.98 69.82 331.53 71.09 331.31 71.72 C 330.56 71.67 329.06 71.55 328.31 71.49 C 328.02 69.88 326.96 69.05 325.42 68.87 C 324.69 70.47 323.96 72.07 323.32 73.71 C 324.46 72.64 325.51 71.47 326.46 70.23 C 327.56 71.64 328.65 73.09 330.12 74.15 C 328.91 75.11 328.02 74.41 327.32 73.26 C 326.84 75.96 324.80 75.77 322.73 75.08 C 322.84 76.27 322.95 77.46 323.08 78.65 C 322.53 78.29 321.42 77.56 320.86 77.19 C 318.57 76.78 315.29 77.48 314.04 74.98 C 311.55 74.95 309.26 74.06 307.01 73.13 C 306.28 73.79 305.59 74.47 304.93 75.19 C 302.34 74.95 299.76 74.57 297.22 74.01 C 296.98 73.53 296.49 72.57 296.24 72.09 C 296.35 73.25 296.47 74.41 296.59 75.58 C 298.27 75.50 299.59 75.90 299.37 77.89 C 296.65 78.31 292.68 76.39 291.04 79.41 C 288.85 79.79 286.64 80.08 284.42 79.98 C 284.76 80.84 285.45 82.56 285.79 83.41 C 285.29 83.80 284.29 84.58 283.78 84.97 C 285.36 84.28 287.02 83.80 288.75 83.72 C 288.55 84.28 288.13 85.38 287.93 85.93 C 289.01 86.30 290.09 86.67 291.18 87.05 L 290.32 88.48 C 290.71 88.75 291.49 89.29 291.89 89.55 L 291.00 90.77 C 292.92 90.83 294.67 91.38 296.25 92.41 C 294.41 92.43 292.38 91.76 290.84 93.05 C 292.81 94.17 294.87 95.24 297.21 94.73 C 296.07 96.61 295.05 98.59 296.40 100.74 C 293.87 100.34 293.73 98.28 293.84 96.20 C 292.54 97.08 291.18 97.88 289.80 98.62 C 288.90 98.04 288.00 97.47 287.11 96.91 C 287.43 98.27 287.76 99.62 288.07 100.98 C 288.64 101.24 289.77 101.75 290.34 102.01 C 289.27 101.67 287.13 101.00 286.06 100.67 C 286.06 101.38 286.06 102.79 286.06 103.49 C 285.13 102.93 284.21 102.36 283.30 101.79 C 281.62 102.11 279.94 102.36 278.28 102.74 C 279.18 105.03 279.98 107.34 280.65 109.70 C 281.62 109.53 282.59 109.37 283.56 109.20 C 285.32 107.45 287.74 107.23 290.08 106.98 C 290.43 107.73 290.78 108.47 291.14 109.22 C 291.67 109.28 292.73 109.40 293.26 109.46 L 294.18 111.00 C 293.32 111.14 291.59 111.42 290.73 111.56 C 290.76 112.44 290.83 114.20 290.87 115.08 C 291.94 115.74 293.02 116.40 294.10 117.06 C 294.57 115.45 295.00 113.83 295.45 112.22 C 296.91 114.63 299.15 116.30 301.38 117.93 C 299.28 117.47 296.96 116.51 295.69 119.00 C 297.28 119.45 298.88 119.86 300.49 120.23 C 299.48 121.32 298.47 122.41 297.48 123.51 C 294.60 123.19 291.90 123.79 290.04 126.14 C 290.75 127.49 291.45 128.84 292.07 130.23 C 291.05 129.52 290.05 128.78 289.07 128.03 C 288.20 129.90 287.26 131.73 286.40 133.60 C 284.77 132.65 283.15 131.67 281.53 130.70 C 281.79 131.69 282.04 132.67 282.31 133.66 C 279.63 133.35 278.12 135.53 277.05 137.61 C 276.13 137.04 275.21 136.48 274.28 135.94 C 273.66 134.62 272.48 134.07 271.09 133.96 C 270.84 135.11 270.61 136.25 270.38 137.41 C 269.70 137.27 268.34 137.00 267.65 136.87 C 267.51 137.42 267.23 138.53 267.09 139.08 C 266.42 138.45 265.08 137.18 264.41 136.55 C 264.53 137.42 264.77 139.17 264.88 140.05 C 263.96 138.32 262.00 138.35 260.33 138.02 C 260.50 138.74 260.85 140.19 261.03 140.92 C 260.66 140.44 259.92 139.48 259.55 139.00 C 257.83 139.89 256.18 140.92 254.44 141.76 C 254.39 142.11 254.30 142.79 254.25 143.13 C 251.75 141.29 249.30 144.53 246.65 143.23 C 246.80 143.99 247.11 145.50 247.27 146.25 C 244.76 145.87 242.23 145.63 239.69 145.70 C 239.92 146.95 240.16 148.19 240.41 149.44 C 239.22 149.87 238.03 150.32 236.86 150.78 C 236.72 150.38 236.43 149.58 236.29 149.18 C 233.45 149.05 230.65 148.29 227.83 149.03 C 228.21 149.36 228.98 150.02 229.36 150.35 C 229.80 151.59 230.29 152.82 230.79 154.04 C 229.24 152.48 227.67 150.93 226.44 149.10 C 225.80 151.10 223.05 153.69 221.30 151.46 C 221.38 151.83 221.55 152.56 221.64 152.93 C 219.45 152.70 218.30 153.75 218.20 156.08 C 217.45 155.45 216.70 154.82 215.95 154.20 C 212.82 155.32 209.49 155.61 206.24 156.16 C 202.76 154.34 198.67 154.91 194.93 155.30 C 193.53 154.45 192.16 153.57 190.78 152.71 C 190.56 153.28 190.11 154.42 189.89 154.99 C 187.51 152.83 185.10 156.84 182.53 155.47 C 180.51 154.66 178.36 154.70 176.24 154.80 C 175.49 156.60 173.82 158.03 174.08 160.14 C 175.56 159.30 177.05 158.49 178.56 157.71 C 177.56 159.55 175.99 160.93 174.51 162.37 C 173.55 161.75 172.61 161.13 171.66 160.51 C 171.35 160.78 170.71 161.30 170.39 161.56 C 167.50 160.24 164.11 161.58 161.43 159.69 C 162.97 159.24 164.52 158.82 166.09 158.44 C 164.61 158.38 163.14 158.29 161.67 158.22 C 161.39 157.73 160.83 156.76 160.54 156.27 C 160.00 156.84 158.92 157.99 158.38 158.57 C 155.39 157.58 152.23 157.97 149.14 157.95 C 148.69 158.74 148.24 159.52 147.77 160.31 C 147.61 159.46 147.29 157.76 147.13 156.92 C 146.19 157.85 145.44 158.93 144.88 160.14 C 144.07 159.18 143.24 158.25 142.40 157.33 C 141.77 158.47 141.26 159.71 140.27 160.61 C 140.65 159.19 141.09 157.79 141.48 156.38 C 140.98 155.99 139.98 155.19 139.49 154.79 C 139.63 155.33 139.93 156.41 140.08 156.95 C 138.68 158.07 137.42 159.33 136.08 160.52 C 136.20 159.51 136.43 157.48 136.54 156.47 C 135.13 157.67 133.88 159.02 132.80 160.52 C 131.29 159.48 129.90 158.29 128.48 157.15 C 127.47 157.59 127.02 158.74 126.24 159.47 C 125.00 158.14 123.59 157.01 122.04 156.07 C 120.93 157.90 119.05 158.96 117.28 160.04 C 115.81 158.99 114.27 157.79 112.36 158.48 C 113.00 156.91 112.85 155.35 111.88 153.94 C 111.53 154.68 110.83 156.14 110.48 156.88 C 108.18 156.73 105.90 156.40 103.61 156.18 C 103.20 156.83 102.39 158.14 101.99 158.79 C 101.96 156.88 101.27 154.39 103.89 154.07 C 101.79 152.90 99.69 153.58 97.76 154.77 C 97.05 153.53 96.33 152.31 95.61 151.08 C 94.04 151.36 92.49 151.68 90.94 152.02 C 90.09 151.23 89.24 150.44 88.38 149.66 C 88.31 150.40 88.15 151.88 88.08 152.62 C 84.60 150.49 80.31 152.42 76.97 154.02 C 76.11 154.50 75.28 155.03 74.47 155.61 C 74.27 156.03 73.87 156.87 73.67 157.29 C 73.65 156.55 73.60 155.08 73.57 154.34 C 72.71 154.54 70.99 154.93 70.14 155.13 C 70.24 154.49 70.46 153.22 70.56 152.59 C 69.52 152.53 67.42 152.40 66.37 152.34 C 66.96 152.96 68.13 154.20 68.71 154.82 C 66.07 154.72 63.43 154.71 60.80 154.87 C 59.48 156.35 57.89 157.54 56.29 158.69 C 55.09 157.62 53.81 156.63 52.41 155.83 C 52.28 156.70 52.02 158.43 51.90 159.30 C 51.50 158.96 50.71 158.27 50.31 157.92 C 49.73 158.32 48.56 159.11 47.98 159.51 C 46.34 158.94 44.70 158.38 43.07 157.83 C 38.67 157.79 34.25 156.47 29.79 156.32 C 30.08 155.69 30.66 154.45 30.95 153.83 C 30.02 154.23 29.10 154.64 28.17 155.04 C 24.86 152.60 20.82 154.82 17.14 154.15 C 15.53 153.75 13.95 154.12 12.41 154.58 C 12.53 153.95 12.75 152.70 12.86 152.07 C 10.88 152.25 10.47 154.19 9.58 155.52 C 9.22 155.08 8.86 154.64 8.50 154.20 C 9.32 151.26 9.40 148.20 9.64 145.19 C 9.03 145.26 7.81 145.40 7.20 145.47 C 5.85 143.09 3.38 143.58 1.15 144.02 C 1.36 143.43 1.80 142.25 2.02 141.66 C 1.51 142.09 0.50 142.94 0.00 143.36 L 0.00 23.75 C 1.24 23.04 2.54 22.85 3.71 23.86 C 4.07 23.57 4.78 22.97 5.14 22.67 C 7.05 22.77 8.96 22.91 10.86 23.12 C 10.57 22.54 9.98 21.37 9.69 20.78 C 11.51 20.83 13.33 20.95 15.15 21.05 C 15.80 20.01 16.45 18.97 17.18 17.98 C 19.30 19.64 21.71 20.80 24.46 20.88 C 25.13 22.18 26.17 23.07 27.56 23.57 C 27.45 22.58 27.23 20.60 27.12 19.60 C 28.39 20.04 29.62 20.54 30.82 21.11 C 30.43 21.65 29.65 22.73 29.26 23.27 C 30.16 22.56 31.07 21.85 31.97 21.14 C 30.74 19.10 29.37 17.16 27.80 15.37 C 29.87 15.79 31.11 17.81 32.87 18.82 C 32.61 17.99 32.10 16.32 31.85 15.49 C 33.48 15.46 34.30 16.31 34.30 18.03 C 35.16 18.27 36.88 18.76 37.74 19.00 C 37.57 18.26 37.22 16.79 37.05 16.06 C 38.33 16.26 39.58 16.57 40.81 16.98 C 40.15 18.10 39.30 19.08 38.42 20.03 C 39.10 20.23 40.47 20.62 41.15 20.82 C 41.24 20.38 41.44 19.51 41.54 19.08 C 43.23 20.57 44.80 19.81 46.22 18.49 C 45.58 18.47 44.29 18.43 43.64 18.41 L 43.61 17.10 C 46.14 17.19 49.34 16.31 51.09 18.72 C 50.04 18.81 47.95 18.97 46.90 19.05 C 48.99 21.40 51.45 23.36 53.98 25.19 C 53.49 24.64 52.51 23.53 52.02 22.97 C 54.65 23.17 57.93 24.44 59.70 21.61 C 57.44 21.63 55.19 21.71 52.94 21.74 C 56.05 18.78 60.80 21.53 64.25 19.18 C 66.16 20.34 68.07 21.51 69.99 22.67 C 70.03 21.92 70.11 20.42 70.15 19.67 C 71.39 20.06 72.64 20.44 73.92 20.69 C 74.39 19.11 75.40 17.83 76.58 16.71 C 76.23 17.16 75.54 18.06 75.19 18.51 C 75.71 19.13 76.75 20.37 77.27 20.99 C 78.53 19.71 79.70 18.35 80.83 16.95 C 81.25 18.43 81.48 20.01 82.42 21.27 C 85.17 18.97 89.16 19.47 92.11 21.12 C 92.19 20.43 92.34 19.04 92.42 18.34 C 93.66 18.40 94.91 18.46 96.16 18.51 C 95.35 18.57 93.72 18.69 92.91 18.75 C 93.80 19.98 94.88 21.00 96.16 21.82 C 96.58 21.21 97.42 19.99 97.84 19.38 C 98.90 19.54 99.96 19.70 101.02 19.85 C 101.38 19.37 102.08 18.40 102.43 17.91 C 102.86 18.34 103.72 19.20 104.15 19.63 C 103.77 22.24 106.77 22.15 108.13 20.71 C 107.57 20.33 106.45 19.55 105.89 19.17 C 108.52 17.22 112.29 18.72 114.64 20.49 C 114.58 20.27 114.46 19.82 114.40 19.60 C 115.75 18.72 117.11 17.85 118.48 16.99 C 117.99 16.41 117.50 15.83 117.01 15.25 C 115.31 15.48 113.60 15.72 111.90 15.97 C 109.52 16.79 107.13 18.13 104.54 17.82 C 104.30 17.25 103.82 16.12 103.58 15.55 C 103.19 15.93 102.40 16.69 102.01 17.07 C 102.01 16.31 102.00 14.80 102.00 14.04 C 102.73 14.14 104.20 14.34 104.94 14.44 C 104.99 13.61 105.09 11.96 105.14 11.14 C 106.15 12.68 107.05 14.72 109.16 14.86 C 112.17 14.58 115.18 14.13 118.20 14.62 C 119.18 16.27 120.12 17.95 121.12 19.58 C 122.10 19.54 124.05 19.45 125.03 19.40 C 123.58 18.76 122.20 17.98 120.98 16.97 C 123.75 16.72 127.31 17.76 128.28 14.27 C 128.66 14.92 129.42 16.21 129.80 16.85 C 130.71 15.15 132.28 14.02 133.75 12.84 C 133.63 13.78 133.39 15.65 133.27 16.59 C 134.92 16.80 136.58 16.96 138.25 17.07 C 137.14 17.77 136.03 18.45 134.92 19.14 C 135.73 19.29 136.55 19.43 137.37 19.56 C 138.34 17.80 139.29 16.04 140.24 14.27 C 139.33 13.95 137.50 13.32 136.59 13.00 C 138.09 12.31 139.58 11.58 140.99 10.73 C 141.88 10.64 143.67 10.46 144.56 10.38 C 143.95 13.38 146.79 14.72 148.77 16.19 C 148.02 15.20 147.26 14.23 146.53 13.23 C 149.71 13.00 152.79 12.22 155.86 11.40 C 158.12 12.23 159.60 14.66 161.88 15.65 C 161.99 14.13 160.35 12.51 160.89 10.97 C 162.26 10.16 163.74 10.77 165.07 11.30 C 164.30 11.52 162.77 11.95 162.00 12.16 C 164.49 14.13 167.87 12.87 170.75 12.74 C 170.87 11.50 170.95 10.26 170.98 9.02 C 172.38 9.86 173.80 10.68 175.24 11.47 C 174.44 10.07 173.66 8.67 172.88 7.27 C 174.55 7.84 176.18 8.50 177.80 9.22 C 177.65 8.17 177.66 7.12 177.82 6.07 C 179.73 8.29 182.62 9.28 184.80 11.21 C 185.21 8.78 183.62 7.27 182.03 5.82 C 183.08 6.52 184.12 7.23 185.15 7.96 C 186.16 7.21 187.19 6.49 188.24 5.79 C 187.75 6.29 186.76 7.29 186.27 7.79 C 187.19 9.10 188.38 10.16 189.59 11.17 C 190.59 9.72 191.58 8.26 192.62 6.84 C 193.68 6.86 194.10 7.53 193.88 8.85 C 194.73 9.10 196.43 9.61 197.28 9.86 C 196.41 8.11 196.41 6.17 196.66 4.28 C 196.94 4.11 197.50 3.76 197.78 3.59 C 197.34 3.21 196.47 2.44 196.04 2.05 M 193.25 10.31 C 193.92 10.79 193.92 10.79 193.25 10.31 M 181.24 17.21 C 181.89 17.88 181.89 17.88 181.24 17.21 M 45.36 20.97 C 45.11 22.28 45.69 22.81 47.12 22.55 C 47.37 21.18 46.79 20.66 45.36 20.97 M 64.02 21.28 C 62.59 22.81 65.92 24.69 66.64 22.84 C 67.10 21.44 65.06 20.50 64.02 21.28 M 124.21 21.05 C 124.22 24.37 127.17 19.60 124.21 21.05 M 60.61 22.15 C 60.40 25.45 63.70 20.83 60.61 22.15 M 103.06 23.25 C 103.62 26.55 105.83 21.47 103.06 23.25 M 319.10 71.36 C 317.37 71.64 318.91 73.71 320.08 73.30 C 322.00 73.03 320.37 70.80 319.10 71.36 M 286.03 110.23 C 287.29 110.39 288.30 109.92 289.07 108.85 C 288.55 107.21 285.66 108.82 286.03 110.23 M 240.27 141.25 C 240.88 141.81 240.88 141.81 240.27 141.25 M 106.78 150.04 C 107.18 153.03 110.70 151.69 112.73 151.58 C 111.61 148.79 108.70 152.14 106.78 150.04 M 134.23 155.20 C 134.74 155.84 134.74 155.84 134.23 155.20 Z" />
<path fill="#f7777a" opacity="1.00" d=" M 200.18 1.13 C 201.23 0.02 203.36 1.65 202.55 2.93 C 201.52 3.91 199.30 2.42 200.18 1.13 Z" />
<path fill="#f7777a" opacity="1.00" d=" M 165.04 3.12 C 166.52 1.98 167.77 4.66 166.55 5.60 C 165.01 7.00 163.67 4.10 165.04 3.12 Z" />
<path fill="#f7777a" opacity="1.00" d=" M 135.31 4.07 L 135.90 4.14 C 135.80 4.80 135.62 6.10 135.53 6.76 C 136.93 6.64 137.80 7.34 138.16 8.86 C 137.13 8.56 136.09 8.25 135.06 7.93 C 135.14 6.64 135.22 5.36 135.31 4.07 Z" />
<path fill="#f7777a" opacity="1.00" d=" M 118.55 6.20 C 119.11 7.37 119.71 8.53 120.58 9.50 C 120.44 10.12 120.17 11.36 120.04 11.98 C 121.16 10.68 123.57 10.80 124.19 12.46 C 123.59 12.82 122.39 13.55 121.79 13.91 C 122.29 14.56 123.27 15.85 123.77 16.50 C 121.57 16.52 119.83 15.61 120.26 13.20 C 119.07 12.76 117.86 12.15 116.55 12.36 C 116.25 11.70 115.66 10.37 115.37 9.71 C 115.90 9.40 116.96 8.80 117.49 8.49 C 117.76 7.92 118.28 6.77 118.55 6.20 Z" />
<path fill="#f7777a" opacity="1.00" d=" M 263.86 7.25 C 264.56 8.09 265.12 9.03 265.63 10.00 C 263.95 10.40 262.53 11.40 261.01 12.16 C 260.43 9.79 263.26 9.25 263.86 7.25 Z" />
<path fill="#f7777a" opacity="1.00" d=" M 169.63 11.95 C 167.99 13.64 165.37 9.93 166.66 8.97 C 167.65 9.78 170.34 10.26 169.63 11.95 Z" />
<path fill="#f7777a" opacity="1.00" d=" M 80.18 11.64 C 81.03 10.70 83.46 11.47 82.61 12.91 C 81.81 14.16 78.85 13.08 80.18 11.64 Z" />
<path fill="#f7777a" opacity="1.00" d=" M 137.07 15.96 C 134.97 17.09 133.91 13.17 135.46 12.51 C 135.69 13.78 137.38 14.68 137.07 15.96 Z" />
<path fill="#f7777a" opacity="1.00" d=" M 85.25 13.34 C 86.13 12.52 89.17 12.72 87.87 14.45 C 86.87 16.36 82.24 14.67 85.25 13.34 Z" />
<path fill="#f7777a" opacity="1.00" d=" M 98.97 14.69 C 100.34 14.56 101.40 16.61 100.69 17.71 C 100.24 17.60 99.34 17.39 98.89 17.28 C 98.13 16.34 98.16 15.48 98.97 14.69 Z" />
<path fill="#f7777a" opacity="1.00" d=" M 20.22 18.20 C 20.83 18.79 20.83 18.79 20.22 18.20 Z" />
<path fill="#f7777a" opacity="1.00" d=" M 338.35 79.15 C 340.81 77.84 341.98 80.32 342.90 82.17 C 340.54 82.59 339.95 80.22 338.35 79.15 Z" />
<path fill="#f7777a" opacity="1.00" d=" M 291.21 84.26 C 291.89 84.80 291.89 84.80 291.21 84.26 Z" />
<path fill="#f7777a" opacity="1.00" d=" M 319.38 92.17 C 320.72 90.65 322.07 92.39 321.68 93.85 C 322.37 96.53 317.57 93.80 319.38 92.17 Z" />
<path fill="#f7777a" opacity="1.00" d=" M 309.16 93.37 C 310.18 92.57 312.42 93.69 311.67 95.07 C 310.68 96.16 308.25 94.69 309.16 93.37 Z" />
<path fill="#f7777a" opacity="1.00" d=" M 315.20 94.24 C 315.77 94.84 315.77 94.84 315.20 94.24 Z" />
<path fill="#f7777a" opacity="1.00" d=" M 298.27 97.07 C 301.25 95.43 298.46 100.36 298.27 97.07 Z" />
<path fill="#f7777a" opacity="1.00" d=" M 318.36 96.98 C 319.34 95.71 321.45 97.38 320.59 98.67 C 319.65 99.99 317.56 98.23 318.36 96.98 Z" />
<path fill="#f7777a" opacity="1.00" d=" M 292.32 100.74 C 291.13 100.06 291.11 99.34 292.26 98.55 C 293.54 99.24 293.56 99.97 292.32 100.74 Z" />
<path fill="#f7777a" opacity="1.00" d=" M 303.14 100.47 C 305.18 100.11 308.39 97.23 309.29 100.54 C 310.14 100.11 311.84 99.24 312.68 98.81 L 312.41 100.37 C 313.96 100.85 314.08 102.41 314.38 103.77 C 316.20 103.96 318.03 104.14 319.86 104.32 C 320.84 103.06 322.27 104.03 323.44 104.17 C 322.98 104.50 322.07 105.15 321.61 105.48 C 322.36 106.30 323.10 107.12 323.86 107.95 C 322.89 107.97 320.95 108.01 319.98 108.03 C 319.58 108.85 319.17 109.67 318.77 110.49 C 318.12 110.53 316.82 110.62 316.17 110.66 C 316.98 110.06 317.79 109.47 318.60 108.88 C 317.53 107.65 316.75 105.90 314.91 105.72 C 315.35 106.30 316.23 107.46 316.67 108.04 C 315.64 108.04 313.58 108.06 312.55 108.06 C 312.60 107.24 312.70 105.59 312.75 104.77 C 311.87 105.87 309.50 106.38 309.94 108.10 C 312.14 109.08 314.56 109.71 314.67 112.68 C 312.29 112.58 310.42 111.33 309.03 109.48 C 308.54 110.04 308.06 110.61 307.58 111.18 L 309.26 111.66 C 309.48 111.93 309.92 112.48 310.13 112.76 C 307.66 113.00 306.61 111.38 307.75 109.08 C 306.70 109.44 304.61 110.18 303.56 110.55 C 304.39 107.48 302.64 104.98 299.55 104.60 C 298.93 103.47 298.32 102.33 297.95 101.10 C 299.67 101.00 300.25 101.89 299.70 103.77 C 300.62 103.73 302.46 103.65 303.38 103.61 C 303.32 102.83 303.20 101.26 303.14 100.47 M 310.41 102.18 C 309.57 103.57 312.05 104.30 312.91 103.51 C 314.15 102.00 311.27 100.88 310.41 102.18 M 304.93 109.07 C 306.04 109.07 307.14 108.97 308.23 108.77 C 308.42 107.61 308.87 106.57 309.57 105.63 C 308.70 105.55 307.84 105.40 307.01 105.19 C 306.73 106.70 306.19 108.11 304.93 109.07 Z" />
<path fill="#f7777a" opacity="1.00" d=" M 294.19 101.19 C 294.81 101.86 294.81 101.86 294.19 101.19 Z" />
<path fill="#f7777a" opacity="1.00" d=" M 327.81 102.42 C 327.82 103.14 327.82 103.86 327.82 104.58 C 326.88 104.93 325.96 105.28 325.03 105.63 C 324.84 105.00 324.66 104.38 324.49 103.76 C 325.78 103.76 326.89 103.31 327.81 102.42 Z" />
<path fill="#f7777a" opacity="1.00" d=" M 329.37 103.17 C 330.70 102.16 332.28 104.60 331.05 105.57 C 329.72 106.32 328.52 104.17 329.37 103.17 Z" />
<path fill="#f7777a" opacity="1.00" d=" M 292.02 103.94 C 293.57 105.17 295.34 108.21 296.57 104.84 C 297.22 105.50 299.88 106.65 298.00 107.49 C 296.54 108.52 293.53 111.93 293.76 107.64 C 293.29 107.73 292.33 107.93 291.86 108.02 C 291.89 106.66 291.94 105.30 292.02 103.94 Z" />
<path fill="#f7777a" opacity="1.00" d=" M 340.18 104.29 C 340.88 104.76 340.88 104.76 340.18 104.29 Z" />
<path fill="#f7777a" opacity="1.00" d=" M 297.22 125.22 C 297.85 125.77 297.85 125.77 297.22 125.22 Z" />
<path fill="#f7777a" opacity="1.00" d=" M 300.18 128.26 C 300.82 128.77 300.82 128.77 300.18 128.26 Z" />
<path fill="#f7777a" opacity="1.00" d=" M 292.98 129.09 C 296.27 129.12 291.60 132.14 292.98 129.09 Z" />
<path fill="#f7777a" opacity="1.00" d=" M 224.98 152.25 C 226.20 151.65 228.07 152.54 228.34 153.89 C 227.68 155.54 224.22 153.79 224.98 152.25 Z" />
<path fill="#f7777a" opacity="1.00" d=" M 98.56 155.03 C 100.65 153.22 101.93 157.62 99.93 158.41 C 98.67 158.05 98.16 156.16 98.56 155.03 Z" />
<path fill="#f7777a" opacity="1.00" d=" M 201.91 156.03 C 203.51 155.52 204.05 156.07 203.54 157.68 C 201.90 158.19 201.35 157.64 201.91 156.03 Z" />
<path fill="#f7777a" opacity="1.00" d=" M 108.21 157.71 C 110.11 158.01 111.43 160.45 109.14 161.36 C 108.82 160.15 108.51 158.93 108.21 157.71 Z" />
<path fill="#f7777a" opacity="1.00" d=" M 104.24 159.15 C 104.83 159.87 104.83 159.87 104.24 159.15 Z" />
<path fill="#f7777a" opacity="1.00" d=" M 114.23 160.27 C 114.83 160.86 114.83 160.86 114.23 160.27 Z" />
<path fill="#f7777a" opacity="1.00" d=" M 158.94 160.44 C 161.35 161.19 163.98 161.81 165.53 164.00 L 163.61 164.00 C 162.17 163.49 160.74 162.94 159.32 162.39 C 159.22 161.91 159.04 160.93 158.94 160.44 Z" />
</g>
</svg>
