<?xml version="1.0" encoding="UTF-8" ?>
<!DOCTYPE svg PUBLIC "-//W3C//DTD SVG 1.1//EN" "http://www.w3.org/Graphics/SVG/1.1/DTD/svg11.dtd">
<svg width="244pt" height="120pt" viewBox="0 0 244 120" version="1.1" xmlns="http://www.w3.org/2000/svg">
<g id="#ffc7cbff">
<path fill="#ffc7cb" opacity="1.00" d=" M 115.83 4.69 C 119.03 3.45 122.57 4.17 125.65 2.77 C 127.82 4.30 130.60 4.00 133.04 4.81 C 129.23 5.33 125.41 4.46 121.60 4.72 C 123.86 7.43 128.17 7.51 131.14 6.01 C 134.51 4.17 138.39 3.84 142.10 3.09 C 147.73 1.99 153.27 4.21 158.89 4.31 C 158.75 3.82 158.46 2.83 158.32 2.33 C 161.73 2.27 165.14 2.43 168.55 2.46 C 168.52 2.88 168.46 3.73 168.43 4.15 C 169.90 4.33 171.59 4.39 171.62 6.36 C 173.82 5.84 175.92 4.99 178.10 4.39 C 181.72 4.25 185.29 5.21 188.91 5.08 C 191.39 4.92 193.85 5.28 196.22 6.02 C 197.77 5.39 200.31 3.28 200.74 6.24 C 205.11 6.34 210.78 7.51 212.52 12.08 C 215.05 12.68 217.55 13.42 219.93 14.49 C 218.87 15.50 215.09 14.68 215.72 16.98 C 218.02 17.10 220.34 17.11 222.63 17.45 C 222.84 19.95 222.77 22.49 222.11 24.93 C 223.73 26.14 225.56 25.69 227.20 24.81 C 227.30 26.41 227.39 28.02 227.47 29.63 C 227.12 29.49 226.41 29.20 226.05 29.05 C 226.32 28.54 226.85 27.52 227.12 27.01 C 226.33 26.84 224.77 26.51 223.98 26.34 C 222.28 29.52 225.80 32.70 223.29 35.66 L 225.72 36.02 C 224.89 36.60 224.07 37.16 223.24 37.73 L 224.37 37.44 C 224.94 38.11 225.64 38.56 226.47 38.80 C 226.14 38.03 225.80 37.26 225.46 36.49 C 227.37 36.53 229.26 36.79 231.11 37.26 C 228.86 39.72 224.23 39.43 224.38 43.70 C 227.35 41.38 228.48 45.02 230.04 46.87 C 232.19 46.87 235.38 45.99 236.74 48.10 C 235.97 50.58 232.67 49.58 230.91 48.80 C 230.46 49.04 229.54 49.52 229.09 49.76 C 228.59 49.52 227.61 49.05 227.11 48.81 C 226.49 49.99 225.87 51.17 225.27 52.36 C 227.10 52.61 229.26 51.90 230.84 53.17 C 231.98 57.19 225.84 54.92 225.11 58.00 C 225.69 60.64 229.13 59.42 231.04 59.76 C 232.06 61.53 233.22 63.23 234.05 65.10 C 235.21 67.78 231.54 68.87 230.49 70.89 C 228.58 70.70 226.61 70.03 224.74 70.80 C 220.47 69.92 216.09 70.57 211.77 70.34 C 214.36 71.02 220.26 70.21 218.63 74.50 C 221.09 75.19 223.45 76.21 225.93 76.84 C 227.62 76.75 229.24 76.21 230.93 76.07 C 232.01 76.70 232.98 77.50 233.99 78.25 C 233.82 78.99 233.49 80.47 233.32 81.22 C 235.21 81.26 237.11 81.22 239.00 81.02 C 239.40 81.90 239.80 82.77 240.21 83.65 C 241.04 83.74 242.71 83.93 243.55 84.02 C 240.91 86.82 238.64 89.99 235.75 92.50 C 235.95 94.02 236.23 95.53 236.54 97.04 C 234.88 98.69 232.83 99.83 230.71 100.79 C 230.45 100.26 229.94 99.22 229.69 98.70 C 227.70 98.03 225.76 97.21 223.87 96.30 C 225.64 94.64 227.21 92.71 226.97 90.13 C 225.35 90.11 223.74 90.12 222.13 90.17 C 222.38 91.44 222.65 92.70 222.93 93.97 C 222.04 95.01 221.15 96.05 220.25 97.08 C 218.80 96.75 217.24 95.92 215.82 96.79 C 211.82 98.46 207.72 99.88 203.36 100.05 C 201.45 102.24 198.70 103.33 195.98 104.09 C 194.29 104.04 192.34 103.21 191.14 104.95 C 193.58 106.35 196.37 105.77 199.00 105.39 C 198.65 106.58 198.30 107.77 197.95 108.96 C 192.97 107.42 187.79 108.69 182.82 109.63 C 182.35 109.37 181.41 108.87 180.94 108.61 C 177.90 110.15 174.42 109.84 171.15 110.29 C 165.48 108.98 159.70 110.47 153.97 110.18 C 149.86 110.39 146.08 108.24 141.97 108.54 C 137.51 108.73 133.00 104.96 128.86 108.08 C 127.52 107.58 126.20 107.06 124.88 106.54 C 124.20 106.66 122.84 106.90 122.16 107.02 C 121.64 106.77 120.60 106.26 120.07 106.01 C 119.55 106.45 118.50 107.32 117.98 107.75 C 113.06 106.87 107.75 104.85 102.96 107.04 C 95.67 106.13 88.35 107.02 81.06 107.37 C 72.39 107.83 63.72 108.44 55.04 108.84 C 50.37 108.62 45.71 108.02 41.03 108.59 C 33.24 109.25 25.00 104.86 17.59 108.70 C 11.90 106.62 5.81 109.24 0.00 107.70 L 0.00 28.01 C 2.81 27.57 5.68 27.31 8.36 26.27 C 6.46 26.24 4.56 26.33 2.67 26.43 C 2.99 25.31 3.27 24.18 3.50 23.05 C 2.34 21.25 0.48 22.29 0.00 23.99 L 0.00 17.61 C 2.50 17.20 4.76 18.15 6.49 19.91 L 3.93 20.42 C 4.65 22.28 5.48 24.13 7.28 25.19 C 7.45 23.55 8.38 22.62 10.06 22.39 C 8.84 22.20 7.46 22.44 6.40 21.73 C 6.15 20.58 6.77 19.41 6.84 18.26 C 10.13 16.89 13.94 17.13 17.09 15.51 C 17.24 16.10 17.56 17.27 17.71 17.85 C 16.71 18.15 15.71 18.46 14.72 18.79 C 18.49 18.41 22.28 18.23 26.06 18.57 C 31.35 18.17 36.64 17.50 41.86 16.54 C 47.59 15.70 53.41 15.70 59.12 14.77 C 60.97 13.65 63.01 13.38 65.12 13.72 C 63.75 13.18 62.40 12.56 61.44 11.41 C 60.76 11.17 59.39 10.69 58.71 10.46 C 61.48 9.89 64.31 9.64 67.13 10.06 C 65.75 10.76 64.30 11.32 62.84 11.83 C 63.73 11.93 65.50 12.13 66.39 12.23 C 66.67 11.42 66.95 10.62 67.24 9.82 C 70.00 8.90 72.86 7.92 75.47 9.80 C 76.57 9.57 77.68 9.35 78.78 9.13 C 80.32 8.19 82.08 8.28 83.80 8.41 L 83.66 9.89 C 87.37 8.69 91.02 6.29 95.04 7.65 C 96.19 6.73 97.47 5.97 99.01 6.24 C 104.67 6.36 110.19 4.88 115.83 4.69 M 99.28 9.06 C 99.15 12.37 102.33 7.80 99.28 9.06 M 23.87 21.52 C 28.29 22.05 32.81 21.52 37.24 21.39 C 42.00 19.55 47.22 20.04 52.11 18.75 C 52.32 18.40 52.74 17.69 52.95 17.34 C 43.29 18.97 33.51 19.82 23.87 21.52 M 9.90 19.72 C 8.91 22.25 14.82 21.75 13.55 19.30 C 12.42 18.60 11.11 19.70 9.90 19.72 M 13.86 23.20 C 14.41 23.65 15.51 24.55 16.05 24.99 C 13.93 25.18 11.79 25.19 9.66 25.30 C 9.93 25.53 10.47 26.00 10.75 26.24 C 14.02 25.83 17.32 25.60 20.62 25.49 C 21.22 24.46 23.95 23.40 22.08 22.17 C 19.33 21.64 16.63 23.14 13.86 23.20 M 44.35 27.26 C 44.32 28.75 46.85 28.39 47.59 27.62 C 47.55 26.26 45.06 26.47 44.35 27.26 M 164.29 82.42 C 163.28 82.70 161.81 83.76 162.34 84.95 C 163.68 86.11 166.10 82.98 164.29 82.42 Z" />
<path fill="#ffc7cb" opacity="1.00" d=" M 212.86 8.73 C 213.50 6.74 215.40 7.30 217.01 7.49 C 216.21 9.07 214.33 8.78 212.86 8.73 Z" />
<path fill="#ffc7cb" opacity="1.00" d=" M 226.10 73.73 C 227.28 71.57 229.67 72.15 231.63 72.71 C 230.64 75.16 227.80 75.89 226.10 73.73 Z" />
<path fill="#ffc7cb" opacity="1.00" d=" M 203.73 106.39 C 205.31 106.07 206.93 105.91 208.53 106.20 C 208.66 106.91 208.92 108.32 209.05 109.03 C 207.67 107.26 205.35 107.63 203.73 106.39 Z" />
<path fill="#ffc7cb" opacity="1.00" d=" M 212.59 110.66 C 214.32 109.85 216.60 112.45 215.34 114.13 C 213.95 117.60 210.08 112.06 212.59 110.66 Z" />
<path fill="#ffc7cb" opacity="1.00" d=" M 208.25 118.23 C 208.78 118.88 208.78 118.88 208.25 118.23 Z" />
</g>
</svg>
