<?xml version="1.0" encoding="UTF-8" ?>
<!DOCTYPE svg PUBLIC "-//W3C//DTD SVG 1.1//EN" "http://www.w3.org/Graphics/SVG/1.1/DTD/svg11.dtd">
<svg width="277pt" height="94pt" viewBox="0 0 277 94" version="1.1" xmlns="http://www.w3.org/2000/svg">
<g id="#f7777aff">
<path fill="#f7777a" opacity="1.00" d=" M 108.66 0.00 L 113.69 0.00 C 113.94 0.42 114.44 1.25 114.69 1.67 C 115.39 1.42 116.79 0.92 117.49 0.67 C 117.64 1.22 117.95 2.34 118.10 2.90 C 121.16 2.89 124.21 3.11 127.27 3.15 C 127.61 3.61 128.28 4.53 128.62 5.00 C 129.27 3.63 130.32 2.66 131.75 2.08 C 132.40 4.23 134.77 3.86 136.46 4.39 C 140.54 5.57 144.71 3.24 148.78 4.64 C 152.54 6.22 156.40 3.99 160.26 4.86 C 158.98 6.37 157.53 7.77 156.63 9.57 C 157.51 8.84 158.21 7.97 158.71 6.94 C 160.13 6.29 161.58 5.69 163.04 5.14 C 162.02 6.55 160.99 7.96 159.95 9.36 C 163.08 8.68 167.13 9.26 168.95 5.98 C 167.92 5.74 165.85 5.28 164.81 5.04 C 166.73 3.42 169.08 4.25 171.24 4.87 C 170.78 5.74 169.87 7.47 169.41 8.34 C 171.54 7.75 173.48 6.70 174.92 5.01 C 175.93 5.56 176.94 6.11 177.97 6.65 C 177.02 7.38 176.07 8.11 175.16 8.89 C 176.59 9.41 177.89 9.18 179.07 8.20 C 181.35 9.19 183.79 9.67 186.28 9.68 C 185.15 8.84 184.01 8.03 182.86 7.23 C 184.16 7.22 185.46 7.21 186.77 7.19 L 186.17 8.56 C 187.54 7.96 190.41 8.11 189.75 10.30 L 189.61 10.70 C 189.95 10.82 190.63 11.04 190.97 11.16 C 190.87 10.35 190.69 8.74 190.59 7.94 C 191.83 8.89 193.06 9.87 194.27 10.86 C 198.34 10.90 202.45 11.13 206.47 10.28 C 210.57 12.18 215.04 11.05 219.36 11.35 C 217.82 11.73 216.27 12.07 214.71 12.38 C 216.50 12.74 218.30 13.09 220.09 13.47 C 220.95 13.30 222.67 12.95 223.53 12.78 C 223.10 13.78 223.06 16.42 221.29 15.88 C 218.90 15.59 215.93 14.38 214.39 17.01 C 217.79 18.21 221.27 17.45 224.69 16.84 C 225.12 18.54 225.54 20.23 225.93 21.94 C 226.98 20.70 228.05 19.47 229.13 18.24 C 229.43 18.56 230.02 19.19 230.31 19.50 C 232.80 19.42 235.29 19.61 237.76 19.87 L 237.24 18.13 C 240.43 18.28 243.77 18.60 246.22 20.89 C 242.00 21.54 237.74 20.83 233.52 20.51 C 231.66 22.02 229.38 20.88 227.30 21.30 C 226.12 22.28 225.80 23.94 225.03 25.21 C 229.02 25.47 233.03 25.49 237.02 25.86 C 238.09 26.82 238.22 28.39 238.80 29.64 C 243.63 29.59 248.47 29.67 253.31 29.66 C 254.27 30.42 255.23 31.18 256.20 31.93 C 253.54 32.43 250.81 32.59 248.18 33.29 C 247.98 35.78 251.39 35.29 253.03 35.23 C 257.18 34.27 261.55 33.11 265.66 34.99 C 262.42 38.53 257.68 35.77 253.68 36.08 C 254.45 37.22 255.23 38.34 256.02 39.47 C 253.14 39.99 250.24 40.33 247.35 40.81 C 247.78 42.40 248.14 44.00 248.72 45.55 C 250.47 45.42 252.19 44.48 253.96 44.93 C 255.48 45.65 256.81 46.71 258.21 47.64 C 256.65 48.07 255.10 48.50 253.55 48.93 C 252.87 48.71 251.51 48.27 250.83 48.05 C 249.18 49.04 247.54 50.05 245.94 51.11 C 248.10 52.31 251.44 51.68 252.42 54.44 C 250.89 54.53 249.37 54.60 247.85 54.67 C 247.57 55.68 247.29 56.69 247.01 57.69 C 256.08 57.66 265.19 57.52 274.08 59.69 C 271.79 60.25 269.48 60.75 267.20 61.34 C 264.50 60.81 261.75 60.82 259.03 61.00 C 259.44 61.60 260.26 62.80 260.67 63.40 C 257.82 63.69 254.96 63.66 252.10 63.75 C 252.30 63.19 252.70 62.08 252.90 61.53 C 251.98 61.55 250.16 61.59 249.25 61.61 C 248.30 62.62 247.57 64.12 245.98 64.18 C 239.34 66.06 232.48 64.34 225.77 63.93 C 225.37 64.10 224.56 64.44 224.16 64.61 C 217.36 63.78 210.49 64.61 203.67 64.17 C 205.44 64.95 207.17 65.81 208.99 66.47 C 213.58 67.11 218.20 64.79 222.74 66.26 C 226.06 67.32 229.57 67.80 233.00 67.01 C 235.96 66.24 238.72 68.12 241.63 68.46 C 241.23 69.08 240.83 69.71 240.44 70.34 C 238.97 70.85 236.76 70.58 236.40 72.63 C 238.99 72.41 241.58 72.05 244.13 71.52 C 244.48 72.05 245.18 73.11 245.53 73.63 C 249.93 75.09 254.67 74.82 259.17 74.00 C 260.08 75.00 260.74 76.32 261.95 77.02 C 266.80 75.83 272.70 72.41 276.82 77.06 C 274.21 80.29 268.83 77.99 266.67 81.48 C 265.50 81.81 264.34 82.16 263.19 82.52 C 263.48 83.30 264.06 84.86 264.35 85.64 C 265.12 85.21 265.90 84.80 266.68 84.41 C 266.72 84.93 266.79 85.99 266.82 86.52 C 263.96 87.16 261.03 87.24 258.20 86.42 C 258.85 85.20 259.75 84.21 260.91 83.45 C 260.38 82.49 259.88 81.53 259.38 80.56 C 259.92 81.04 260.99 82.02 261.53 82.51 C 261.91 81.96 262.66 80.88 263.04 80.34 C 261.49 80.08 259.96 79.75 258.41 79.60 C 258.89 83.50 255.26 85.31 252.80 87.53 C 250.85 87.27 248.93 86.81 247.02 86.39 C 242.65 86.91 238.28 86.14 233.90 86.61 C 230.72 86.79 227.25 83.84 224.44 86.05 C 224.46 86.47 224.52 87.31 224.54 87.74 C 223.42 87.08 222.27 86.46 221.13 85.85 C 219.79 86.69 218.45 87.52 217.12 88.36 C 211.78 88.58 206.49 87.92 201.19 87.35 C 199.02 88.58 196.56 89.52 194.02 89.03 C 190.23 88.43 186.38 88.38 182.61 87.63 C 174.59 90.80 166.12 85.91 157.93 88.09 C 153.33 89.33 148.59 87.75 143.98 88.99 C 135.37 87.80 126.62 89.63 118.00 87.99 C 114.59 86.96 111.33 88.47 108.02 89.04 C 104.33 88.95 100.68 88.06 96.98 88.33 C 90.66 88.37 84.36 90.48 78.07 89.24 C 74.19 88.66 70.26 90.23 66.44 89.19 C 64.98 90.50 63.12 90.96 61.24 91.26 C 59.83 90.36 58.34 89.58 56.82 88.88 C 55.73 88.75 54.59 88.21 53.49 88.57 C 51.65 88.91 51.35 91.55 49.40 91.59 C 49.43 91.08 49.50 90.06 49.53 89.55 C 45.05 88.43 40.54 89.64 36.00 89.23 C 34.19 89.06 32.65 90.21 30.97 90.67 C 28.43 90.43 25.91 89.94 23.34 90.00 C 22.24 90.87 21.13 91.72 19.99 92.52 C 20.42 91.14 20.84 89.76 21.27 88.37 C 19.99 89.09 18.74 89.83 17.50 90.60 C 16.13 90.19 14.77 89.77 13.40 89.37 C 10.78 90.02 8.08 89.70 5.42 89.64 C 5.51 90.47 5.69 92.13 5.78 92.96 C 5.18 91.77 4.56 90.60 3.93 89.42 C 3.74 89.97 3.35 91.06 3.16 91.60 C 2.10 91.23 1.05 90.84 0.00 90.45 L 0.00 85.11 C 1.56 84.88 2.90 84.08 4.06 83.06 C 2.71 82.97 1.35 82.97 0.00 83.06 L 0.00 11.80 C 0.82 10.44 1.62 9.06 2.36 7.66 C 7.15 5.05 12.83 6.65 18.02 5.84 C 20.23 5.10 21.26 7.29 22.10 8.86 C 22.46 8.18 23.18 6.83 23.54 6.15 C 26.37 5.54 29.20 6.78 32.02 7.01 C 31.83 6.50 31.45 5.47 31.26 4.95 C 37.43 2.70 43.88 5.85 49.98 3.40 C 49.87 3.94 49.67 5.01 49.56 5.55 C 54.33 5.18 59.10 5.30 63.87 5.32 C 64.41 4.77 65.48 3.66 66.01 3.11 C 65.82 4.13 65.64 5.15 65.46 6.18 C 71.57 4.14 77.80 5.55 84.00 6.19 C 87.65 4.63 91.68 6.06 95.32 4.76 C 95.33 5.22 95.35 6.14 95.37 6.60 C 95.84 4.35 97.26 2.69 99.15 1.46 C 99.83 2.10 101.20 3.39 101.88 4.03 C 101.75 3.20 101.51 1.54 101.38 0.71 C 101.57 1.19 101.95 2.15 102.15 2.63 C 103.47 1.94 104.80 1.27 106.14 0.60 C 106.36 1.44 106.82 3.12 107.05 3.97 C 107.60 2.65 108.14 1.33 108.66 0.00 M 114.20 2.14 C 114.85 2.74 114.85 2.74 114.20 2.14 M 129.20 7.82 C 130.09 8.41 132.66 8.76 132.78 7.37 C 131.88 6.78 129.30 6.38 129.20 7.82 M 101.26 17.61 C 100.72 19.16 101.31 19.66 103.02 19.13 C 103.53 17.60 102.94 17.09 101.26 17.61 M 211.08 23.71 C 209.93 25.28 213.34 26.66 213.81 24.81 C 213.78 23.57 211.98 23.20 211.08 23.71 M 233.90 30.94 C 236.52 33.67 240.85 32.97 244.12 32.01 C 245.21 32.29 246.29 32.56 247.39 32.83 C 247.05 32.49 246.38 31.80 246.04 31.46 C 242.69 31.09 239.26 31.20 236.01 32.10 C 235.48 31.81 234.43 31.23 233.90 30.94 M 87.21 39.13 C 86.93 39.40 86.38 39.95 86.10 40.22 C 86.97 43.57 91.16 38.65 87.21 39.13 M 221.95 79.16 C 222.21 81.75 225.92 81.35 227.60 82.61 C 228.28 81.45 228.97 80.29 229.67 79.14 C 227.23 77.81 224.31 77.45 221.95 79.16 M 203.67 81.64 C 207.37 81.35 211.91 83.13 214.99 80.48 C 212.93 80.35 210.87 80.34 208.81 80.35 L 208.92 81.71 C 207.18 81.41 204.92 79.40 203.67 81.64 M 216.25 80.40 C 214.64 81.09 215.85 83.87 217.32 82.45 C 218.60 81.65 217.77 79.11 216.25 80.40 Z" />
<path fill="#f7777a" opacity="1.00" d=" M 0.00 7.15 C 0.06 7.26 0.18 7.50 0.25 7.61 L 0.00 7.50 L 0.00 7.15 Z" />
<path fill="#f7777a" opacity="1.00" d=" M 224.24 15.26 C 224.91 15.73 224.91 15.73 224.24 15.26 Z" />
<path fill="#f7777a" opacity="1.00" d=" M 246.97 19.09 C 248.62 18.49 249.15 19.00 248.56 20.61 C 246.90 21.21 246.37 20.70 246.97 19.09 Z" />
<path fill="#f7777a" opacity="1.00" d=" M 270.48 44.22 C 270.40 43.98 270.23 43.49 270.14 43.24 C 270.48 43.65 271.15 44.48 271.48 44.89 C 272.17 44.31 273.54 43.14 274.22 42.56 C 274.56 43.24 275.24 44.61 275.58 45.29 C 275.93 44.73 276.64 43.61 277.00 43.05 L 277.00 46.34 L 276.20 45.28 C 275.11 45.75 274.04 46.24 272.95 46.69 C 272.13 45.86 271.31 45.03 270.48 44.22 Z" />
<path fill="#f7777a" opacity="1.00" d=" M 250.39 69.05 C 251.22 68.20 253.75 68.90 253.05 70.29 C 252.19 70.84 249.93 70.35 250.39 69.05 Z" />
<path fill="#f7777a" opacity="1.00" d=" M 228.82 89.08 C 232.41 89.63 236.89 90.79 239.78 88.03 L 239.89 88.52 C 239.45 89.07 238.58 90.15 238.15 90.70 C 234.89 90.76 231.62 90.71 228.37 90.60 C 228.48 90.22 228.71 89.46 228.82 89.08 Z" />
</g>
</svg>
