<?xml version="1.0" encoding="UTF-8" ?>
<!DOCTYPE svg PUBLIC "-//W3C//DTD SVG 1.1//EN" "http://www.w3.org/Graphics/SVG/1.1/DTD/svg11.dtd">
<svg width="194pt" height="93pt" viewBox="0 0 194 93" version="1.1" xmlns="http://www.w3.org/2000/svg">
<g id="#f7777aff">
<path fill="#f7777a" opacity="1.00" d=" M 8.45 0.00 L 10.09 0.00 C 11.20 1.18 11.23 2.32 10.17 3.44 C 9.02 2.62 8.44 1.48 8.45 0.00 Z" />
<path fill="#f7777a" opacity="1.00" d=" M 16.87 4.06 C 16.57 0.25 20.79 1.80 22.88 2.66 C 23.24 3.85 23.59 5.04 23.95 6.24 C 21.55 6.08 18.40 6.22 16.87 4.06 Z" />
<path fill="#f7777a" opacity="1.00" d=" M 132.24 1.42 C 132.75 1.86 133.79 2.75 134.31 3.19 C 133.90 4.53 132.41 4.97 131.42 5.78 C 131.67 4.32 131.95 2.87 132.24 1.42 Z" />
<path fill="#f7777a" opacity="1.00" d=" M 8.54 8.10 C 10.65 7.31 12.74 6.44 14.88 5.68 C 14.09 6.88 13.31 8.07 12.54 9.27 C 16.19 8.86 19.84 8.49 23.37 7.43 C 26.73 7.51 30.07 7.23 33.27 6.13 C 33.48 7.63 33.70 9.13 33.93 10.63 C 38.67 12.17 43.89 13.22 48.75 11.59 C 54.56 9.14 60.73 12.07 66.56 12.98 C 72.32 11.71 78.33 15.34 84.00 12.99 C 86.39 11.61 89.77 13.61 91.37 10.79 C 94.19 12.04 96.98 13.36 99.77 14.69 C 102.87 13.90 106.16 11.96 109.36 13.22 C 112.53 12.45 115.72 13.90 116.67 17.15 C 118.25 16.61 119.84 16.10 121.41 15.53 C 121.77 15.61 122.47 15.76 122.83 15.84 C 125.32 14.83 128.00 15.99 130.49 15.36 C 130.71 13.97 130.10 12.58 129.99 11.19 C 130.30 11.56 130.93 12.29 131.25 12.65 C 131.40 13.18 131.71 14.23 131.87 14.76 C 134.09 14.64 136.56 16.32 138.62 14.86 C 140.59 16.03 142.81 16.11 144.93 15.30 C 148.64 16.64 152.58 16.89 156.43 17.49 C 162.78 20.32 169.53 22.56 176.52 22.90 C 176.24 23.23 175.69 23.90 175.41 24.23 C 178.02 26.39 180.84 28.52 182.35 31.64 C 186.48 38.21 185.81 46.94 191.38 52.73 C 190.72 53.09 189.39 53.81 188.73 54.17 C 189.73 61.95 192.77 69.66 191.37 77.58 C 192.24 78.54 193.11 79.49 194.00 80.44 L 194.00 81.81 C 192.88 82.38 191.72 82.88 190.58 83.39 C 190.16 84.90 189.59 86.38 189.31 87.93 C 189.76 89.17 190.83 90.04 191.62 91.05 C 191.05 91.54 189.92 92.51 189.36 93.00 L 0.00 93.00 L 0.00 10.27 C 0.43 9.88 1.29 9.09 1.73 8.69 C 2.20 9.86 2.67 11.03 3.13 12.20 C 5.10 11.90 7.06 11.52 9.00 11.03 C 8.88 10.30 8.65 8.83 8.54 8.10 Z" />
<path fill="#f7777a" opacity="1.00" d=" M 38.48 8.06 C 41.46 6.66 38.48 11.39 38.48 8.06 Z" />
</g>
</svg>
