<?xml version="1.0" encoding="UTF-8" ?>
<!DOCTYPE svg PUBLIC "-//W3C//DTD SVG 1.1//EN" "http://www.w3.org/Graphics/SVG/1.1/DTD/svg11.dtd">
<svg width="194pt" height="107pt" viewBox="0 0 194 107" version="1.1" xmlns="http://www.w3.org/2000/svg">
<g id="#f7777aff">
<path fill="#f7777a" opacity="1.00" d=" M 8.45 0.00 L 10.15 0.00 C 11.17 1.21 11.17 2.34 10.15 3.39 C 8.95 2.61 8.39 1.48 8.45 0.00 Z" />
<path fill="#f7777a" opacity="1.00" d=" M 17.30 4.80 C 16.34 3.55 17.16 1.24 18.95 1.48 C 20.24 1.84 21.52 2.21 22.80 2.60 C 23.20 3.72 23.58 4.84 23.95 5.97 C 21.68 6.54 19.32 5.87 17.30 4.80 Z" />
<path fill="#f7777a" opacity="1.00" d=" M 132.03 1.49 C 132.60 1.89 133.74 2.71 134.30 3.12 C 134.08 4.58 132.44 4.97 131.41 5.72 C 131.64 4.31 131.87 2.90 132.03 1.49 Z" />
<path fill="#f7777a" opacity="1.00" d=" M 8.56 7.98 C 10.70 7.29 12.78 6.46 14.89 5.68 C 14.10 6.92 13.33 8.16 12.59 9.43 C 14.45 8.93 16.35 8.31 18.27 8.96 C 22.99 6.27 28.44 8.15 33.39 6.25 C 33.57 7.73 33.76 9.21 33.98 10.69 C 38.49 12.05 43.34 13.16 48.00 11.88 C 54.05 8.91 60.61 12.15 66.77 13.05 C 67.96 12.71 69.19 12.20 70.43 12.66 C 74.25 13.49 78.24 13.94 82.14 13.63 C 84.75 12.54 87.46 11.58 90.25 12.85 C 90.34 12.28 90.53 11.15 90.62 10.58 C 93.77 11.76 96.80 13.22 99.80 14.74 C 102.82 14.03 106.36 11.43 109.25 13.50 C 112.19 12.10 116.18 13.86 116.35 17.32 C 118.49 16.44 120.73 15.46 123.11 15.77 C 125.01 15.04 126.95 15.18 128.85 15.82 C 131.81 15.76 130.15 12.70 129.96 11.11 C 131.36 12.62 132.12 16.67 134.92 14.72 C 135.59 15.14 136.94 15.99 137.61 16.41 C 137.63 15.83 137.68 14.66 137.70 14.08 C 139.80 15.91 142.34 16.33 144.92 15.37 C 148.47 16.35 152.04 17.17 155.75 17.26 C 162.49 20.20 169.61 22.76 177.04 22.90 C 176.49 23.25 175.38 23.95 174.82 24.30 C 178.42 25.81 180.99 29.00 182.76 32.37 C 186.48 38.89 186.05 47.24 191.41 52.89 C 190.75 53.17 189.44 53.72 188.78 54.00 C 189.48 61.78 192.98 69.46 191.26 77.32 C 192.14 78.39 192.99 79.49 194.00 80.44 L 194.00 81.77 C 192.89 82.34 191.75 82.86 190.61 83.38 C 189.58 85.99 188.38 89.33 191.73 90.84 C 189.64 93.02 187.38 95.04 184.76 96.55 C 184.67 97.09 184.50 98.16 184.41 98.70 C 181.60 99.74 178.86 100.95 176.09 102.07 C 173.19 102.64 170.49 101.17 167.92 100.07 C 164.94 98.60 161.49 99.33 158.32 98.79 C 158.81 99.41 159.31 100.03 159.81 100.66 C 159.74 101.27 159.60 102.51 159.53 103.12 C 158.96 103.44 157.81 104.07 157.24 104.39 C 156.89 103.34 156.55 102.29 156.19 101.24 L 159.26 100.89 C 157.90 100.42 155.90 98.80 154.83 100.61 C 153.75 102.46 152.23 103.93 150.17 104.66 C 147.80 103.81 145.42 103.02 143.01 102.31 C 139.97 105.69 135.26 106.51 130.95 105.78 C 129.03 105.14 127.29 103.81 125.21 103.76 C 123.75 104.16 122.36 104.75 120.99 105.37 C 120.75 105.05 120.27 104.41 120.03 104.09 C 120.90 103.62 121.77 103.14 122.64 102.65 C 124.89 102.43 127.14 102.21 129.38 101.93 C 126.13 99.34 121.87 100.67 118.10 99.95 C 112.50 98.93 106.86 100.20 101.22 99.80 C 91.42 100.38 81.55 98.54 71.89 100.82 C 71.29 101.67 70.69 102.52 70.10 103.38 C 70.22 102.46 70.45 100.62 70.57 99.71 C 69.91 100.27 68.59 101.40 67.93 101.96 C 66.90 101.55 65.87 101.15 64.84 100.74 C 64.96 101.64 65.21 103.45 65.34 104.36 C 64.55 103.15 63.79 101.94 63.03 100.72 C 63.22 101.44 63.60 102.87 63.79 103.59 C 60.58 104.88 57.03 104.49 53.81 105.75 C 48.36 105.94 42.93 106.57 37.50 107.00 L 13.34 107.00 C 16.19 106.83 18.41 104.98 20.87 103.76 C 15.11 105.51 8.89 103.18 3.25 105.19 C 2.43 105.05 0.81 104.76 0.00 104.62 L 0.00 10.08 C 0.46 9.77 1.39 9.16 1.85 8.85 C 2.25 9.95 2.64 11.05 3.03 12.15 C 5.07 11.89 7.10 11.50 9.09 10.98 C 8.96 10.23 8.69 8.73 8.56 7.98 M 28.55 102.53 C 27.19 103.07 25.83 103.59 24.55 104.30 C 25.59 104.64 26.61 105.01 27.63 105.41 C 28.26 105.20 29.52 104.77 30.15 104.56 C 29.62 103.88 29.08 103.21 28.55 102.53 M 57.31 102.13 C 57.34 105.48 60.28 100.59 57.31 102.13 M 22.27 104.25 C 22.84 104.80 22.84 104.80 22.27 104.25 Z" />
<path fill="#f7777a" opacity="1.00" d=" M 38.45 8.15 C 41.30 6.46 38.75 11.45 38.45 8.15 Z" />
<path fill="#f7777a" opacity="1.00" d=" M 162.89 104.22 C 161.38 102.15 163.23 101.06 164.75 100.00 C 165.62 100.82 166.50 101.65 167.40 102.44 C 165.85 102.93 164.36 103.55 162.89 104.22 Z" />
<path fill="#f7777a" opacity="1.00" d=" M 183.64 102.98 C 183.44 101.19 186.59 100.30 187.14 102.15 C 187.25 103.82 184.36 104.32 183.64 102.98 Z" />
<path fill="#f7777a" opacity="1.00" d=" M 87.29 102.22 C 87.78 102.82 87.78 102.82 87.29 102.22 Z" />
<path fill="#f7777a" opacity="1.00" d=" M 116.46 102.19 C 120.41 101.12 116.48 106.63 115.43 103.35 C 115.68 103.06 116.20 102.48 116.46 102.19 Z" />
</g>
</svg>
