<?xml version="1.0" encoding="UTF-8" ?>
<!DOCTYPE svg PUBLIC "-//W3C//DTD SVG 1.1//EN" "http://www.w3.org/Graphics/SVG/1.1/DTD/svg11.dtd">
<svg width="299pt" height="143pt" viewBox="0 0 299 143" version="1.1" xmlns="http://www.w3.org/2000/svg">
<g id="#f8c7cbff">
<path fill="#f8c7cb" opacity="1.00" d=" M 90.44 0.00 L 92.96 0.00 C 94.14 1.85 96.84 1.94 97.98 0.00 L 228.51 0.00 C 229.37 0.14 231.10 0.41 231.97 0.55 C 231.81 0.73 231.48 1.08 231.32 1.26 C 236.16 1.45 240.84 2.91 245.55 3.93 C 244.81 4.27 243.33 4.94 242.59 5.28 C 240.28 7.29 237.22 7.83 234.35 8.53 C 235.35 9.19 236.36 9.85 237.38 10.49 C 236.97 11.38 236.57 12.27 236.17 13.17 C 237.43 12.92 238.70 12.71 239.98 12.54 C 241.38 13.59 242.52 14.92 243.88 16.02 C 244.89 15.83 245.89 15.62 246.89 15.37 C 246.55 15.95 245.88 17.12 245.54 17.70 C 247.38 16.77 248.94 15.43 250.60 14.24 C 250.54 14.83 250.40 16.01 250.33 16.60 C 252.52 17.66 254.73 18.72 256.74 20.12 C 256.91 21.97 256.75 23.82 256.65 25.67 C 258.31 26.17 260.41 25.97 261.70 27.31 C 262.52 28.89 262.64 30.72 263.08 32.42 C 266.03 31.96 269.09 31.00 272.05 31.93 C 273.56 32.47 275.15 32.20 276.71 32.11 C 277.36 35.50 280.74 37.01 282.16 39.92 C 280.57 42.30 275.92 45.53 279.84 48.10 C 281.39 50.28 282.51 47.18 283.64 46.26 C 283.89 46.41 284.40 46.72 284.66 46.88 C 283.68 45.40 281.83 43.92 283.18 42.04 C 286.87 42.18 288.08 46.22 289.03 49.13 C 288.34 49.47 286.95 50.15 286.26 50.50 C 287.35 51.88 288.44 53.27 289.49 54.70 C 285.86 54.20 282.27 53.47 278.63 53.12 C 280.60 57.46 285.77 59.19 287.28 63.78 C 288.42 66.50 291.87 66.77 294.02 68.41 C 293.66 71.72 289.31 69.59 287.08 70.31 C 287.31 71.68 287.70 73.01 288.09 74.35 C 287.83 76.23 287.69 78.13 287.65 80.04 C 286.92 83.50 286.21 87.14 288.13 90.36 C 287.62 90.65 286.59 91.23 286.08 91.52 C 286.19 90.83 286.42 89.44 286.54 88.75 C 285.17 87.14 283.92 85.44 282.68 83.74 C 282.37 85.38 282.16 87.03 281.73 88.65 C 279.09 89.36 276.49 88.57 274.34 87.01 C 272.68 87.58 271.03 88.16 269.38 88.74 C 270.47 95.28 268.52 101.56 266.48 107.68 C 266.86 107.60 267.64 107.43 268.03 107.35 C 268.79 107.16 270.29 106.78 271.05 106.58 C 271.45 107.79 271.85 108.99 272.25 110.20 C 273.97 109.38 275.64 107.14 277.69 108.36 C 277.96 110.02 277.61 112.14 275.82 112.77 C 274.04 113.23 272.19 113.17 270.38 113.25 C 268.80 110.89 266.14 110.74 263.55 110.85 C 264.03 112.13 264.53 113.42 265.03 114.70 C 263.56 114.38 262.09 114.05 260.62 113.73 C 261.64 115.14 262.75 116.50 263.67 117.99 C 261.98 120.14 258.02 116.30 257.14 120.31 C 258.06 120.44 259.91 120.69 260.83 120.82 C 260.33 121.22 259.83 121.62 259.33 122.01 C 258.81 121.71 257.78 121.10 257.27 120.79 C 256.63 122.83 255.94 124.85 255.19 126.85 C 252.96 126.60 250.72 126.45 248.47 126.45 C 248.20 128.20 248.35 130.05 247.68 131.72 C 246.09 133.33 244.07 134.42 242.19 135.65 C 236.78 133.75 231.32 136.97 227.42 140.55 C 223.21 140.02 218.79 139.24 214.84 141.37 C 214.23 141.17 212.99 140.76 212.37 140.55 C 208.89 140.76 205.21 140.29 202.53 143.00 L 202.53 143.00 C 199.38 140.31 195.24 141.45 191.52 140.71 C 186.07 139.70 180.50 141.30 175.07 140.17 C 171.06 139.25 166.95 140.40 162.92 139.69 C 155.92 138.38 148.55 139.00 141.81 136.40 C 138.83 135.25 136.09 137.84 133.09 137.53 C 131.09 137.40 129.09 137.17 127.08 137.24 C 120.37 136.51 113.57 138.15 106.93 136.65 C 103.61 136.37 100.28 137.01 96.95 136.85 C 91.32 136.24 85.71 138.30 80.09 137.25 C 75.08 136.14 69.99 137.16 64.98 137.64 C 63.90 137.18 62.85 136.66 61.84 136.08 C 58.48 136.22 55.08 136.34 51.84 137.33 C 49.80 136.89 47.76 136.43 45.74 135.91 C 40.31 135.64 35.01 138.49 29.70 136.79 C 27.48 136.37 25.26 135.98 23.02 135.66 C 19.88 135.24 16.97 136.79 13.94 137.27 C 11.56 136.78 9.67 134.73 7.14 134.92 C 4.76 134.91 2.38 135.10 0.00 135.23 L 0.00 30.56 C 5.98 30.52 11.74 28.84 17.68 28.49 C 19.33 27.64 20.69 26.33 22.09 25.13 C 26.41 24.48 30.61 23.11 34.97 22.73 C 37.21 22.51 39.53 22.56 41.62 21.62 C 35.09 17.57 27.18 20.60 20.05 19.23 C 18.39 18.73 16.68 18.41 14.98 18.09 C 18.94 14.36 24.77 14.41 29.81 13.44 C 29.50 12.95 28.87 11.95 28.56 11.45 C 32.58 10.84 37.65 12.01 40.61 8.49 C 42.21 6.53 44.79 6.38 47.10 6.06 C 47.33 5.49 47.79 4.34 48.02 3.77 C 49.16 4.53 50.29 5.29 51.42 6.05 C 53.11 4.87 54.58 3.43 56.19 2.16 C 59.55 1.58 63.05 2.42 66.40 1.49 C 66.78 1.59 67.56 1.78 67.94 1.87 C 66.89 2.58 65.83 3.29 64.78 4.00 C 65.29 4.33 66.31 5.00 66.83 5.33 C 69.68 4.41 72.60 3.76 75.48 2.96 C 74.19 2.68 72.91 2.37 71.64 2.03 L 71.63 1.01 C 77.90 0.76 84.18 0.53 90.44 0.00 M 77.25 3.20 C 77.95 3.84 77.95 3.84 77.25 3.20 M 51.54 14.21 C 50.69 15.63 52.96 17.34 54.07 16.08 C 54.99 14.69 52.58 12.81 51.54 14.21 M 205.91 136.10 C 208.86 136.18 212.13 136.72 214.78 135.07 C 211.81 134.97 208.64 134.73 205.91 136.10 Z" />
<path fill="#f8c7cb" opacity="1.00" d=" M 295.46 78.37 C 294.13 76.44 295.44 74.77 296.74 73.29 C 297.52 74.91 298.27 76.55 299.00 78.20 L 299.00 78.60 C 297.81 78.57 296.63 78.49 295.46 78.37 Z" />
</g>
</svg>
