<?xml version="1.0" encoding="UTF-8" ?>
<!DOCTYPE svg PUBLIC "-//W3C//DTD SVG 1.1//EN" "http://www.w3.org/Graphics/SVG/1.1/DTD/svg11.dtd">
<svg width="236pt" height="111pt" viewBox="0 0 236 111" version="1.1" xmlns="http://www.w3.org/2000/svg">
<g id="#ffc7cbff">
<path fill="#ffc7cb" opacity="1.00" d=" M 158.56 0.00 L 159.04 0.00 C 164.23 1.72 170.03 0.43 174.91 3.03 C 178.11 3.38 181.37 2.85 184.52 3.71 C 186.51 4.43 188.52 3.75 190.52 3.50 C 189.58 3.97 188.65 4.44 187.72 4.91 C 189.96 5.62 192.89 4.98 194.66 6.89 C 191.85 7.79 189.56 9.88 186.47 10.04 C 187.02 10.46 188.13 11.30 188.68 11.72 C 188.44 12.34 187.96 13.59 187.72 14.22 C 191.00 10.34 193.36 19.31 195.54 14.84 C 195.48 15.48 195.35 16.76 195.28 17.39 C 196.56 16.76 197.52 15.67 198.54 14.70 C 198.29 17.60 201.77 18.09 203.67 19.33 C 203.60 20.88 203.52 22.42 203.42 23.97 C 204.66 24.50 206.55 24.16 207.36 25.46 C 207.94 26.81 208.29 28.25 208.75 29.65 C 212.11 27.74 215.58 29.93 219.01 29.03 C 219.27 29.94 219.53 30.85 219.79 31.76 C 220.88 33.02 223.15 33.97 222.86 35.95 C 222.04 37.10 221.04 38.11 220.24 39.27 C 219.37 40.82 221.41 41.95 222.05 43.10 C 222.80 42.33 223.55 41.56 224.30 40.79 C 223.88 39.63 222.57 37.36 224.80 37.16 C 226.89 38.44 227.71 40.76 228.33 42.99 C 227.81 43.33 226.79 44.01 226.27 44.34 C 226.87 45.11 228.06 46.65 228.65 47.42 C 227.14 47.27 224.12 46.96 222.61 46.80 L 224.26 45.35 C 223.06 45.68 221.84 46.08 220.67 46.46 C 221.62 48.71 223.51 50.27 225.26 51.89 C 226.88 53.33 226.78 56.21 229.13 56.91 C 230.32 57.69 232.48 57.94 231.92 59.87 C 230.34 60.33 228.67 60.00 227.05 60.11 C 228.15 64.84 227.04 69.68 226.34 74.39 C 226.82 74.81 227.77 75.66 228.25 76.08 C 227.79 76.36 226.86 76.92 226.40 77.20 C 226.40 74.72 224.74 72.82 223.36 70.94 C 223.21 72.33 223.07 73.71 222.93 75.09 C 220.81 75.33 218.70 75.00 216.96 73.70 C 215.72 74.17 214.49 74.66 213.26 75.15 C 213.99 80.46 212.80 85.83 210.75 90.70 C 212.02 90.41 213.36 88.90 214.62 90.02 C 214.84 90.65 215.27 91.90 215.49 92.53 C 216.62 91.82 217.60 90.45 219.08 90.63 C 220.28 91.36 219.67 93.17 218.96 94.03 C 217.60 95.22 215.59 94.69 213.95 94.93 C 212.84 93.15 210.97 92.81 209.00 92.95 C 209.22 93.76 209.65 95.40 209.87 96.21 C 209.08 95.96 207.48 95.46 206.68 95.21 C 207.48 96.60 208.30 97.98 208.89 99.48 C 206.93 98.67 205.25 98.89 203.83 100.13 C 204.59 100.51 206.10 101.29 206.86 101.67 C 205.87 101.58 204.89 101.43 203.92 101.21 C 203.43 102.82 202.88 104.42 202.25 105.97 C 200.56 105.77 198.86 105.65 197.16 105.62 C 197.06 107.49 197.08 109.47 195.83 111.00 L 0.00 111.00 L 0.00 30.42 C 0.13 29.98 0.40 29.11 0.54 28.68 C 3.74 28.39 6.92 27.95 10.13 27.71 C 13.09 27.68 15.84 25.74 18.82 26.77 C 20.38 25.93 22.24 25.31 23.05 23.58 C 27.86 22.68 32.59 21.31 37.51 21.23 C 38.18 21.30 38.85 21.35 39.52 21.39 C 38.86 21.22 37.55 20.88 36.89 20.71 C 35.66 18.66 32.98 19.08 30.95 19.04 C 26.65 19.30 22.33 18.94 18.14 17.92 C 19.74 15.52 22.87 15.54 25.35 14.71 C 25.39 13.80 25.44 12.89 25.49 11.98 C 25.51 12.65 25.56 13.98 25.59 14.65 C 26.43 14.53 28.11 14.29 28.95 14.17 C 28.76 13.72 28.39 12.83 28.20 12.39 C 31.50 12.16 35.56 12.86 37.84 9.89 C 39.29 7.98 42.43 9.01 43.43 6.57 C 45.56 8.81 48.14 7.22 49.24 4.87 C 52.31 4.82 55.42 5.05 58.42 4.27 C 57.67 5.25 56.94 6.24 56.22 7.25 C 58.99 7.40 61.60 6.33 64.27 5.80 C 63.07 5.29 61.86 4.77 60.67 4.23 C 67.10 4.02 73.63 2.70 80.01 3.89 C 82.58 2.70 85.42 3.26 88.14 2.98 C 90.81 2.84 93.54 2.26 96.14 3.20 C 97.43 2.81 98.72 2.39 100.00 1.96 C 101.02 2.29 102.05 2.63 103.07 2.96 C 103.63 2.77 104.74 2.38 105.30 2.19 C 112.40 3.30 119.66 0.98 126.73 2.55 C 127.28 2.11 128.37 1.24 128.92 0.80 C 134.10 2.62 139.61 2.24 144.98 1.72 C 149.51 1.20 154.35 2.15 158.56 0.00 M 46.24 14.94 C 45.98 16.30 46.52 16.77 47.87 16.36 C 48.18 14.97 47.64 14.49 46.24 14.94 Z" />
<path fill="#ffc7cb" opacity="1.00" d=" M 233.11 66.93 C 232.71 65.16 232.84 63.50 234.67 62.69 C 234.82 63.53 235.11 65.21 235.26 66.05 L 236.00 65.08 L 236.00 66.60 C 235.28 66.69 233.83 66.85 233.11 66.93 Z" />
</g>
</svg>
