<?xml version="1.0" encoding="UTF-8" ?>
<!DOCTYPE svg PUBLIC "-//W3C//DTD SVG 1.1//EN" "http://www.w3.org/Graphics/SVG/1.1/DTD/svg11.dtd">
<svg width="229pt" height="89pt" viewBox="0 0 229 89" version="1.1" xmlns="http://www.w3.org/2000/svg">
<g id="#f7777aff">
<path fill="#f7777a" opacity="1.00" d=" M 68.65 0.00 L 72.48 0.00 C 74.89 0.05 76.74 0.98 78.04 2.78 C 80.85 2.85 83.65 2.99 86.47 3.01 C 86.72 3.46 87.24 4.36 87.49 4.81 C 88.50 3.51 89.72 2.45 91.16 1.63 L 91.33 3.55 C 93.14 3.74 94.95 4.02 96.64 4.73 C 100.24 4.41 103.91 3.53 107.48 4.57 C 109.99 5.47 112.61 4.95 115.07 4.18 C 116.05 4.65 117.03 5.13 118.02 5.60 C 118.68 5.48 120.02 5.22 120.68 5.09 C 119.59 6.37 118.51 7.65 117.44 8.94 C 120.48 8.56 123.82 8.49 126.15 6.18 C 124.78 5.45 123.43 4.69 122.10 3.90 C 124.24 3.94 126.37 4.19 128.46 4.64 C 127.95 5.44 126.93 7.04 126.42 7.85 C 128.51 7.43 130.37 6.44 131.82 4.87 C 132.58 5.31 134.11 6.18 134.87 6.62 C 133.77 7.19 132.69 7.77 131.60 8.36 C 133.02 8.53 134.52 8.98 135.85 8.11 C 138.13 8.77 140.47 9.18 142.84 9.26 C 141.93 8.63 140.09 7.37 139.18 6.74 C 140.66 6.97 142.14 7.28 143.59 7.66 C 144.44 7.78 146.14 8.01 146.99 8.12 C 146.61 8.60 145.84 9.54 145.46 10.01 C 145.65 10.28 146.03 10.81 146.22 11.08 C 146.44 10.35 146.88 8.89 147.10 8.16 C 148.25 8.86 149.30 9.70 150.39 10.51 C 151.62 10.42 152.87 10.34 154.11 10.26 C 155.06 9.45 156.18 9.49 156.86 10.67 C 158.47 10.37 160.09 10.08 161.71 9.81 C 165.19 11.16 168.94 11.11 172.58 10.64 C 172.51 11.12 172.38 12.08 172.32 12.56 C 174.28 12.67 176.24 12.65 178.19 12.85 C 177.88 13.47 177.27 14.72 176.96 15.34 C 174.31 15.17 171.20 13.66 169.29 16.33 C 172.54 17.36 175.87 16.74 179.13 16.18 C 179.49 17.80 179.85 19.41 180.20 21.02 C 181.12 20.05 182.04 19.08 182.99 18.12 C 186.26 18.82 189.67 18.96 192.91 17.98 C 195.28 17.17 197.52 18.65 199.71 19.34 C 199.05 19.58 197.73 20.06 197.07 20.30 C 197.23 20.73 197.54 21.58 197.69 22.00 C 197.36 22.00 196.69 22.01 196.36 22.01 C 196.51 21.54 196.81 20.60 196.96 20.12 C 193.72 20.10 190.49 19.94 187.27 19.56 C 186.97 19.86 186.37 20.47 186.07 20.77 C 184.53 20.52 182.98 20.29 181.44 20.11 C 180.84 21.49 180.25 22.87 179.67 24.26 C 183.44 24.44 187.22 24.49 190.98 24.83 C 191.73 25.97 192.20 27.26 192.75 28.50 C 197.42 28.40 202.09 28.49 206.75 28.55 C 207.55 29.37 208.37 30.18 209.19 30.97 C 206.65 31.17 204.07 31.23 201.59 31.88 C 201.41 35.22 205.71 33.28 207.67 33.78 C 207.58 34.34 207.49 34.90 207.40 35.46 C 207.72 36.13 208.35 37.48 208.67 38.16 C 206.02 38.53 203.34 38.69 200.73 39.28 C 201.28 41.02 201.81 42.76 202.52 44.45 C 203.15 43.96 204.42 42.97 205.05 42.48 C 206.35 43.06 207.66 43.64 208.90 44.34 C 209.54 44.59 210.82 45.11 211.46 45.36 C 209.05 46.44 206.43 47.24 203.84 46.34 C 202.38 47.20 200.93 48.09 199.51 49.00 C 201.78 49.90 204.29 50.32 206.16 52.01 C 204.52 52.23 202.88 52.43 201.24 52.60 C 201.03 53.31 200.63 54.71 200.43 55.41 C 209.15 55.40 217.94 55.11 226.44 57.45 C 224.19 57.89 221.96 58.33 219.73 58.82 C 217.25 58.51 214.75 58.41 212.26 58.57 C 212.48 59.22 212.93 60.51 213.15 61.16 C 210.55 61.14 207.96 61.12 205.37 61.16 C 205.54 60.63 205.86 59.58 206.02 59.05 C 204.87 59.10 203.73 59.16 202.58 59.21 C 200.13 63.01 194.93 62.33 191.00 62.44 C 180.35 61.09 169.57 61.88 158.85 61.87 C 160.91 62.49 162.85 63.52 164.98 63.92 C 169.16 64.17 173.37 62.32 177.49 63.67 C 180.63 64.74 183.98 64.96 187.24 64.35 C 189.84 63.73 192.27 65.17 194.76 65.68 C 194.72 66.10 194.64 66.93 194.60 67.35 C 193.01 67.93 191.09 68.06 190.11 69.67 C 192.70 69.54 195.28 69.21 197.84 68.73 C 198.17 69.27 198.84 70.35 199.18 70.89 C 203.44 71.99 207.93 71.84 212.24 71.07 C 212.89 72.10 213.54 73.13 214.20 74.16 C 218.75 73.06 224.82 69.24 228.51 74.00 C 226.24 77.14 221.41 75.19 218.86 78.09 C 217.96 78.42 217.07 78.74 216.17 79.04 C 216.38 79.97 216.81 81.84 217.02 82.78 C 217.68 82.13 218.34 81.47 219.00 80.81 L 219.17 82.44 C 218.14 82.93 217.12 83.44 216.11 83.97 C 214.41 83.63 212.71 83.26 211.02 82.88 C 212.00 81.80 213.02 80.75 214.07 79.73 C 213.44 79.36 212.20 78.60 211.57 78.23 C 213.19 78.28 214.83 78.31 216.39 77.84 C 214.63 77.19 212.84 76.67 211.04 76.17 C 211.08 76.99 211.16 78.63 211.21 79.45 C 209.50 81.01 207.74 82.51 206.04 84.08 C 204.18 83.84 202.28 83.72 200.57 82.88 C 193.88 83.37 186.92 83.77 180.48 81.49 C 179.18 82.49 177.93 83.58 178.33 85.40 C 178.12 84.69 177.68 83.27 177.47 82.56 C 175.26 83.11 173.23 84.21 171.04 84.78 C 166.32 85.24 161.66 84.29 156.98 83.92 C 151.45 87.21 144.96 84.53 139.04 84.24 C 132.48 86.83 125.68 83.60 118.96 84.11 C 116.00 84.32 113.11 85.39 110.13 85.07 C 106.04 84.52 102.00 86.09 97.94 85.14 C 90.94 84.86 83.90 85.80 76.95 84.41 C 73.91 83.64 71.00 85.03 68.05 85.51 C 64.71 85.42 61.41 84.67 58.05 84.83 C 52.03 84.88 46.04 86.75 40.03 85.77 C 36.70 85.35 33.36 85.83 30.07 86.28 C 29.71 86.02 29.00 85.49 28.65 85.22 C 27.44 86.48 26.04 87.66 24.16 87.41 C 24.05 87.51 23.82 87.72 23.70 87.82 C 20.79 85.55 15.05 83.01 13.37 87.98 C 12.57 87.73 11.77 87.49 10.96 87.24 C 8.57 83.28 3.61 86.90 0.00 85.72 L 0.00 3.64 C 4.32 4.27 8.70 4.77 12.91 3.29 C 12.77 3.79 12.48 4.79 12.34 5.29 C 16.89 4.97 21.46 5.27 26.01 5.05 C 26.79 4.39 27.54 3.70 28.26 2.98 C 28.06 3.72 27.65 5.21 27.45 5.96 C 29.97 5.46 32.50 4.90 35.06 4.64 C 39.21 4.90 43.38 6.50 47.53 5.45 C 49.73 4.99 52.00 5.27 54.23 5.15 C 56.77 4.28 58.79 1.00 61.64 3.08 C 63.19 2.21 64.75 1.37 66.31 0.52 C 66.59 1.68 66.87 2.84 67.16 4.00 C 67.68 2.67 68.16 1.34 68.65 0.00 M 61.54 17.07 C 60.55 18.27 62.65 19.43 63.47 18.35 C 64.49 17.15 62.35 15.92 61.54 17.07 M 166.33 22.95 C 165.32 24.49 168.61 25.45 168.78 23.71 C 168.25 22.61 167.44 22.36 166.33 22.95 M 187.63 30.77 C 191.75 32.35 196.18 30.31 200.19 31.71 C 200.14 31.35 200.04 30.61 199.99 30.24 C 195.84 29.78 191.76 30.55 187.63 30.77 M 175.78 76.74 C 177.86 77.69 179.97 78.55 182.11 79.36 C 182.71 78.14 183.33 76.93 183.95 75.72 C 181.17 74.46 178.08 74.60 175.78 76.74 M 163.47 77.33 C 164.45 79.27 166.83 78.36 168.57 78.59 C 168.89 78.24 169.52 77.53 169.84 77.18 C 167.72 77.15 165.59 77.18 163.47 77.33 M 170.86 79.37 C 172.02 79.92 173.33 78.00 172.39 77.14 C 171.18 76.57 169.76 78.48 170.86 79.37 Z" />
<path fill="#f7777a" opacity="1.00" d=" M 200.00 19.27 C 200.78 17.76 201.58 17.72 202.41 19.13 C 201.61 20.67 200.80 20.71 200.00 19.27 Z" />
<path fill="#f7777a" opacity="1.00" d=" M 208.14 33.04 C 211.54 32.65 215.18 31.94 218.27 33.91 C 215.21 36.34 210.78 35.77 208.14 33.04 Z" />
<path fill="#f7777a" opacity="1.00" d=" M 223.54 42.77 C 224.55 42.19 225.57 41.61 226.59 41.03 C 226.82 41.61 227.29 42.78 227.52 43.36 L 229.00 41.79 L 229.00 45.06 L 228.39 43.27 C 226.72 45.43 224.79 44.69 223.54 42.77 Z" />
<path fill="#f7777a" opacity="1.00" d=" M 219.10 62.97 C 221.98 61.41 219.26 66.31 219.10 62.97 Z" />
<path fill="#f7777a" opacity="1.00" d=" M 203.55 65.98 C 204.46 65.21 206.69 66.11 206.18 67.42 C 205.27 68.08 203.09 67.27 203.55 65.98 Z" />
</g>
</svg>
