<?xml version="1.0" encoding="UTF-8" ?>
<!DOCTYPE svg PUBLIC "-//W3C//DTD SVG 1.1//EN" "http://www.w3.org/Graphics/SVG/1.1/DTD/svg11.dtd">
<svg width="316pt" height="146pt" viewBox="0 0 316 146" version="1.1" xmlns="http://www.w3.org/2000/svg">
<g id="#f8c7cbff">
<path fill="#f8c7cb" opacity="1.00" d=" M 52.02 0.00 L 104.35 0.00 C 108.86 1.63 113.24 3.75 118.15 3.78 C 119.82 3.79 121.49 3.95 123.15 4.19 C 127.00 2.44 131.25 1.57 135.23 3.47 C 140.51 3.34 144.81 6.72 149.91 7.60 C 153.31 5.66 156.54 8.35 159.95 8.78 C 162.67 9.05 165.35 9.60 168.05 10.04 C 171.20 10.65 174.15 9.08 177.09 8.21 C 178.73 8.82 180.38 9.43 182.02 10.07 C 182.22 9.27 182.64 7.69 182.85 6.90 C 187.02 8.82 190.97 11.19 194.88 13.60 C 198.45 12.38 202.22 12.05 205.92 11.42 C 206.63 11.96 207.32 12.53 208.00 13.12 C 211.54 11.39 214.70 13.75 217.23 16.05 C 217.06 16.81 216.72 18.31 216.55 19.06 C 219.16 18.36 221.83 17.90 224.43 17.18 C 225.19 17.46 225.95 17.75 226.71 18.03 C 229.23 16.89 231.88 16.60 234.01 18.66 C 238.13 17.25 243.13 16.87 246.52 20.07 C 246.71 19.11 246.90 18.14 247.09 17.18 C 248.67 18.32 250.18 19.63 252.02 20.36 C 254.27 20.42 256.99 18.21 258.64 20.74 C 259.63 20.88 260.61 21.03 261.61 21.18 C 264.46 22.88 267.84 23.11 271.09 23.13 C 275.14 26.01 279.92 27.45 284.10 30.06 C 287.07 30.40 289.82 31.64 292.71 32.31 C 294.26 33.35 296.08 33.49 297.90 33.47 C 298.40 33.59 299.39 33.81 299.89 33.93 C 298.85 34.48 297.79 34.99 296.72 35.47 C 300.16 36.72 301.67 40.21 304.36 42.42 C 306.36 47.21 308.83 51.91 309.45 57.13 C 310.06 61.74 311.31 66.21 312.41 70.71 C 313.10 72.10 314.46 73.00 315.54 74.09 L 316.00 74.20 L 316.00 75.58 C 314.72 76.40 313.33 77.05 312.22 78.09 C 312.44 88.10 315.65 98.20 313.33 108.19 C 312.49 110.49 315.06 111.99 316.00 113.79 L 316.00 115.04 C 314.49 116.14 312.78 116.87 311.02 117.45 C 310.97 118.51 310.92 119.57 310.87 120.62 C 310.31 120.92 309.21 121.51 308.65 121.81 C 308.87 124.20 309.88 126.29 311.84 127.72 C 308.88 130.76 305.11 132.74 301.66 135.10 C 301.47 135.69 301.10 136.85 300.91 137.44 C 297.34 138.96 293.43 139.48 289.90 141.12 C 285.46 141.91 281.39 139.33 277.68 137.23 C 274.70 135.34 271.01 136.01 267.73 135.08 C 265.29 135.63 262.80 135.82 260.36 136.34 C 258.66 138.93 256.46 141.44 253.06 141.39 C 249.67 140.26 246.51 138.50 243.03 137.61 C 242.71 138.08 242.07 139.02 241.75 139.50 C 237.40 142.10 232.26 141.90 227.42 141.23 C 223.84 139.94 220.34 135.68 216.44 138.69 C 214.74 138.70 213.05 138.58 211.41 138.09 C 215.45 134.69 220.82 135.98 225.65 135.68 C 223.24 133.93 220.51 132.64 217.48 132.64 C 211.21 132.40 205.25 129.89 198.95 130.18 C 195.56 130.19 192.16 130.14 188.83 129.45 C 184.16 129.01 179.33 129.46 174.80 128.02 C 174.02 128.25 173.24 128.48 172.47 128.71 C 164.70 127.07 156.41 125.55 148.63 127.69 C 148.27 127.52 147.55 127.16 147.19 126.98 C 146.05 127.51 144.59 130.86 143.60 129.12 C 144.21 128.53 145.42 127.34 146.03 126.75 C 144.09 126.61 142.23 126.92 140.89 128.45 C 139.88 127.88 138.87 127.31 137.87 126.74 C 136.43 127.21 134.97 127.63 133.57 128.23 C 135.16 128.53 136.74 128.84 138.32 129.17 C 134.28 130.15 130.18 131.97 125.96 130.86 C 119.83 132.66 113.36 131.34 107.07 131.75 C 100.43 131.30 93.60 132.69 87.19 130.31 C 81.91 132.03 76.32 130.91 70.89 131.20 C 68.83 131.47 67.58 129.51 66.10 128.45 C 66.56 128.28 67.50 127.94 67.96 127.77 C 68.13 128.39 68.46 129.64 68.62 130.26 C 69.69 128.98 70.73 127.68 71.76 126.36 C 69.34 125.36 66.73 125.40 64.17 125.17 C 60.09 125.62 56.07 123.37 52.07 125.22 C 46.53 123.59 40.68 125.10 35.03 124.14 C 31.70 125.52 28.26 124.51 24.97 123.62 C 20.64 124.41 15.12 122.81 11.96 126.65 L 11.04 125.17 C 10.52 125.55 9.49 126.32 8.97 126.70 C 8.41 126.18 7.28 125.14 6.72 124.62 C 7.12 126.29 7.52 127.97 8.01 129.62 C 8.38 128.85 9.11 127.32 9.48 126.56 C 9.98 127.40 10.48 128.24 10.98 129.09 C 11.69 128.44 12.41 127.79 13.12 127.14 C 14.09 127.69 16.03 128.80 16.99 129.36 C 13.20 130.44 9.18 130.32 5.29 130.20 C 3.55 130.78 1.77 131.19 0.00 131.64 L 0.00 19.13 C 2.13 17.83 4.48 16.99 6.90 16.41 C 6.39 16.07 5.38 15.38 4.87 15.04 C 5.16 14.45 5.73 13.28 6.02 12.69 C 6.73 12.92 8.15 13.39 8.87 13.62 C 11.91 12.46 14.76 10.89 17.45 9.05 C 19.14 9.35 20.85 9.30 22.53 9.04 C 21.66 8.48 19.91 7.38 19.04 6.83 C 20.19 5.26 22.08 4.60 23.66 3.57 C 24.53 4.03 26.28 4.94 27.15 5.40 C 27.50 4.15 27.86 2.91 28.23 1.67 C 28.31 2.52 28.49 4.22 28.57 5.07 C 29.72 4.27 30.86 3.47 32.01 2.66 C 33.42 2.99 34.84 3.29 36.26 3.58 C 36.16 5.12 36.12 6.68 36.24 8.22 C 36.38 7.23 36.66 5.26 36.80 4.27 C 37.39 4.34 38.57 4.47 39.16 4.54 C 39.31 5.38 39.61 7.04 39.76 7.87 C 40.61 7.21 41.46 6.54 42.32 5.88 C 45.95 4.67 48.86 2.08 52.02 0.00 M 81.22 126.35 C 82.57 127.03 83.93 127.68 85.24 128.43 C 85.63 128.28 86.41 127.97 86.79 127.82 C 87.25 128.01 88.17 128.38 88.63 128.57 C 88.30 127.38 87.97 126.18 87.65 125.00 C 85.48 125.33 83.28 125.58 81.22 126.35 M 127.12 127.11 C 126.80 127.41 126.16 127.99 125.84 128.29 C 126.43 131.65 130.93 126.52 127.12 127.11 Z" />
<path fill="#f8c7cb" opacity="1.00" d=" M 240.58 0.00 L 242.03 0.00 C 242.45 0.66 243.30 1.97 243.72 2.63 C 242.26 3.44 240.77 4.21 239.28 4.94 C 239.70 3.29 240.19 1.66 240.58 0.00 Z" />
<path fill="#f8c7cb" opacity="1.00" d=" M 236.47 13.26 C 238.12 11.94 239.53 15.65 237.79 16.24 C 236.39 16.26 235.71 14.29 236.47 13.26 Z" />
<path fill="#f8c7cb" opacity="1.00" d=" M 252.34 15.96 C 253.31 14.94 255.82 16.15 254.95 17.56 C 253.99 18.39 251.54 17.35 252.34 15.96 Z" />
<path fill="#f8c7cb" opacity="1.00" d=" M 61.14 128.31 C 64.48 128.32 59.72 131.31 61.14 128.31 Z" />
<path fill="#f8c7cb" opacity="1.00" d=" M 56.28 129.17 C 57.08 128.33 59.80 128.91 58.41 130.29 C 57.28 132.22 53.59 130.76 56.28 129.17 Z" />
<path fill="#f8c7cb" opacity="1.00" d=" M 312.48 129.09 C 313.86 128.72 314.35 129.24 313.96 130.64 C 312.59 130.99 312.09 130.48 312.48 129.09 Z" />
<path fill="#f8c7cb" opacity="1.00" d=" M 205.59 136.77 C 206.60 135.56 208.90 133.30 209.95 135.70 C 208.81 136.96 207.15 137.03 205.59 136.77 Z" />
<path fill="#f8c7cb" opacity="1.00" d=" M 261.98 137.36 C 263.61 138.06 265.23 137.52 266.81 136.96 C 266.66 138.18 266.49 139.39 266.29 140.61 C 265.28 141.14 264.20 141.51 263.17 141.99 C 262.81 140.43 262.42 138.89 261.98 137.36 Z" />
<path fill="#f8c7cb" opacity="1.00" d=" M 273.80 137.03 C 274.85 138.20 275.85 139.42 276.64 140.79 C 274.98 141.24 273.11 141.22 272.04 142.81 C 271.24 141.92 270.44 141.02 269.68 140.11 C 270.99 139.00 272.37 137.98 273.80 137.03 Z" />
<path fill="#f8c7cb" opacity="1.00" d=" M 299.65 143.86 C 300.21 142.04 302.04 140.85 303.80 142.02 C 304.27 144.65 301.14 143.50 299.65 143.86 Z" />
<path fill="#f8c7cb" opacity="1.00" d=" M 279.47 146.00 C 280.06 144.45 280.68 144.45 281.31 146.00 L 279.47 146.00 Z" />
</g>
</svg>
