<?xml version="1.0" encoding="UTF-8" ?>
<!DOCTYPE svg PUBLIC "-//W3C//DTD SVG 1.1//EN" "http://www.w3.org/Graphics/SVG/1.1/DTD/svg11.dtd">
<svg width="156pt" height="120pt" viewBox="0 0 156 120" version="1.1" xmlns="http://www.w3.org/2000/svg" preserveAspectRatio="none">
<g id="#f7777aff">
<path fill="#f7777a" opacity="1.00" d=" M 71.98 0.00 L 85.45 0.00 C 85.45 0.46 85.44 1.39 85.43 1.86 C 85.73 1.84 86.33 1.80 86.63 1.78 C 90.21 2.72 93.89 3.21 97.52 3.97 C 97.01 3.44 96.50 2.92 95.99 2.39 C 93.16 2.10 90.29 1.85 87.65 0.69 C 91.99 0.68 96.25 1.55 100.49 2.37 L 97.50 2.49 C 97.63 2.87 97.89 3.64 98.02 4.02 C 101.64 5.08 105.18 6.84 109.05 6.42 C 112.33 6.21 115.14 8.20 118.08 9.35 C 124.14 10.98 130.50 12.68 135.55 16.57 C 134.46 16.48 132.28 16.31 131.19 16.22 C 137.14 19.43 142.95 22.90 148.41 26.88 C 150.19 28.47 153.73 28.12 153.74 31.21 C 154.30 31.42 155.43 31.85 156.00 32.07 L 156.00 113.52 C 155.08 116.64 152.72 119.01 149.63 120.00 L 6.50 120.00 C 3.37 119.09 0.99 116.71 0.00 113.61 L 0.00 42.19 C 0.57 40.11 1.34 38.09 2.06 36.05 C 1.54 36.06 0.51 36.09 0.00 36.10 L 0.00 33.30 C 2.82 30.55 6.30 28.63 9.50 26.37 C 18.31 20.05 27.77 14.44 38.17 11.18 C 36.16 9.01 33.25 9.48 30.62 9.63 C 36.55 6.99 42.59 4.50 49.06 3.56 C 56.01 1.35 63.27 0.39 70.55 0.25 C 71.12 1.04 71.71 1.81 72.31 2.58 C 75.86 2.32 79.39 1.94 82.92 1.60 L 82.87 1.13 C 79.53 1.43 76.17 1.54 72.82 1.66 C 72.61 1.24 72.19 0.41 71.98 0.00 M 54.22 5.12 C 54.69 5.84 54.69 5.84 54.22 5.12 M 39.68 7.75 C 39.55 8.19 39.28 9.07 39.15 9.52 C 40.07 10.14 42.07 10.08 42.44 8.80 C 42.69 7.29 40.57 6.76 39.68 7.75 Z" />
<path fill="#f7777a" opacity="1.00" d=" M 0.00 23.93 C 1.13 22.96 2.27 22.86 3.42 23.62 C 2.49 24.60 1.35 25.23 0.00 25.51 L 0.00 23.93 Z" />
<path fill="#f7777a" opacity="1.00" d=" M 5.31 23.20 C 5.81 23.85 5.81 23.85 5.31 23.20 Z" />
<path fill="#f7777a" opacity="1.00" d=" M 0.00 26.20 C 0.43 26.08 1.29 25.84 1.73 25.72 C 1.88 26.89 1.31 27.62 0.00 27.90 L 0.00 26.20 Z" />
</g>
</svg>
